# Blender 3.6.5
# www.blender.org
mtllib bookshelf.mtl
o Cube
v -1.047762 -0.401071 0.289309
v -1.047762 0.401071 0.289309
v -1.047762 -0.401071 -0.289309
v -1.047762 0.401071 -0.289309
v 1.047762 -0.401071 0.289309
v 1.047762 0.401071 0.289309
v 1.047762 -0.401071 -0.289309
v 1.047762 0.401071 -0.289309
v -0.995900 -0.381219 0.289309
v -0.995900 0.381219 0.289309
v -1.005417 -0.384862 -0.277617
v -1.005417 0.384862 -0.277617
v 0.995900 -0.381219 0.289309
v 0.995900 0.381219 0.289309
v 1.005417 -0.384862 -0.277617
v 1.005417 0.384862 -0.277617
v -1.047762 0.401071 0.289309
v -1.047762 1.203214 0.289309
v -1.047762 0.401071 -0.289309
v -1.047762 1.203214 -0.289309
v 1.047762 0.401071 0.289309
v 1.047762 1.203214 0.289309
v 1.047762 0.401071 -0.289309
v 1.047762 1.203214 -0.289309
v -0.995900 0.420923 0.289309
v -0.995900 1.183362 0.289309
v -1.005417 0.417281 -0.277617
v -1.005417 1.187005 -0.277617
v 0.995900 0.420923 0.289309
v 0.995900 1.183362 0.289309
v 1.005417 0.417281 -0.277617
v 1.005417 1.187005 -0.277617
v -1.047762 1.203214 0.289309
v -1.047762 2.005357 0.289309
v -1.047762 1.203214 -0.289309
v -1.047762 2.005357 -0.289309
v 1.047762 1.203214 0.289309
v 1.047762 2.005357 0.289309
v 1.047762 1.203214 -0.289309
v 1.047762 2.005357 -0.289309
v -0.995900 1.223066 0.289309
v -0.995900 1.985505 0.289309
v -1.005417 1.219423 -0.277617
v -1.005417 1.989148 -0.277617
v 0.995900 1.223066 0.289309
v 0.995900 1.985505 0.289309
v 1.005417 1.219423 -0.277617
v 1.005417 1.989148 -0.277617
vn -1.0000 -0.0000 -0.0000
vn -0.0000 -0.0000 -1.0000
vn 1.0000 -0.0000 -0.0000
vn -0.0000 -1.0000 -0.0000
vn -0.0000 1.0000 -0.0000
vn 0.9999 -0.0000 -0.0168
vn -0.0000 -0.0000 1.0000
vn -0.9999 -0.0000 -0.0168
vn -0.0000 1.0000 -0.0064
vn -0.0000 -1.0000 -0.0064
vt 0.375000 0.000000
vt 0.625000 0.000000
vt 0.625000 0.250000
vt 0.375000 0.250000
vt 0.625000 0.500000
vt 0.375000 0.500000
vt 0.625000 0.750000
vt 0.375000 0.750000
vt 0.125000 0.500000
vt 0.125000 0.750000
vt 0.875000 0.500000
vt 0.875000 0.750000
s 0
f 1/1/1 2/2/1 4/3/1 3/4/1
f 3/4/2 4/3/2 8/5/2 7/6/2
f 7/6/3 8/5/3 6/7/3 5/8/3
f 3/9/4 7/6/4 5/8/4 1/10/4
f 8/5/5 4/11/5 2/12/5 6/7/5
f 9/1/6 11/4/6 12/3/6 10/2/6
f 11/4/7 15/6/7 16/5/7 12/3/7
f 15/6/8 13/8/8 14/7/8 16/5/8
f 11/9/9 9/10/9 13/8/9 15/6/9
f 16/5/10 14/7/10 10/12/10 12/11/10
f 2/2/7 1/1/7 9/1/7 10/2/7
f 5/8/7 6/7/7 14/7/7 13/8/7
f 1/10/7 5/8/7 13/8/7 9/10/7
f 6/7/7 2/12/7 10/12/7 14/7/7
f 17/1/1 18/2/1 20/3/1 19/4/1
f 19/4/2 20/3/2 24/5/2 23/6/2
f 23/6/3 24/5/3 22/7/3 21/8/3
f 19/9/4 23/6/4 21/8/4 17/10/4
f 24/5/5 20/11/5 18/12/5 22/7/5
f 25/1/6 27/4/6 28/3/6 26/2/6
f 27/4/7 31/6/7 32/5/7 28/3/7
f 31/6/8 29/8/8 30/7/8 32/5/8
f 27/9/9 25/10/9 29/8/9 31/6/9
f 32/5/10 30/7/10 26/12/10 28/11/10
f 18/2/7 17/1/7 25/1/7 26/2/7
f 21/8/7 22/7/7 30/7/7 29/8/7
f 17/10/7 21/8/7 29/8/7 25/10/7
f 22/7/7 18/12/7 26/12/7 30/7/7
f 33/1/1 34/2/1 36/3/1 35/4/1
f 35/4/2 36/3/2 40/5/2 39/6/2
f 39/6/3 40/5/3 38/7/3 37/8/3
f 35/9/4 39/6/4 37/8/4 33/10/4
f 40/5/5 36/11/5 34/12/5 38/7/5
f 41/1/6 43/4/6 44/3/6 42/2/6
f 43/4/7 47/6/7 48/5/7 44/3/7
f 47/6/8 45/8/8 46/7/8 48/5/8
f 43/9/9 41/10/9 45/8/9 47/6/9
f 48/5/10 46/7/10 42/12/10 44/11/10
f 34/2/7 33/1/7 41/1/7 42/2/7
f 37/8/7 38/7/7 46/7/7 45/8/7
f 33/10/7 37/8/7 45/8/7 41/10/7
f 38/7/7 34/12/7 42/12/7 46/7/7
