# Blender 3.6.5
# www.blender.org
mtllib crate.mtl
o Cube
v 1.000000 1.000000 -1.000000
v 1.000000 -1.000000 -1.000000
v 1.000000 1.000000 1.000000
v 1.000000 -1.000000 1.000000
v -1.000000 1.000000 -1.000000
v -1.000000 -1.000000 -1.000000
v -1.000000 1.000000 1.000000
v -1.000000 -1.000000 1.000000
v 0.803063 1.000000 -0.803063
v -0.803063 1.000000 -0.803063
v -0.803063 1.000000 0.803063
v 0.803063 1.000000 0.803063
v 0.803063 -0.803063 1.000000
v 0.803063 0.803063 1.000000
v -0.803063 0.803063 1.000000
v -0.803063 -0.803063 1.000000
v -1.000000 -0.803063 0.803063
v -1.000000 0.803063 0.803063
v -1.000000 0.803063 -0.803063
v -1.000000 -0.803063 -0.803063
v -0.803063 -1.000000 -0.803063
v 0.803063 -1.000000 -0.803063
v 0.803063 -1.000000 0.803063
v -0.803063 -1.000000 0.803063
v 1.000000 -0.803063 -0.803063
v 1.000000 0.803063 -0.803063
v 1.000000 0.803063 0.803063
v 1.000000 -0.803063 0.803063
v -0.803063 -0.803063 -1.000000
v -0.803063 0.803063 -1.000000
v 0.803063 0.803063 -1.000000
v 0.803063 -0.803063 -1.000000
v 0.803063 0.925994 -0.803063
v -0.803063 0.925994 -0.803063
v -0.803063 0.925994 0.803063
v 0.803063 0.925994 0.803063
v 0.803063 -0.803063 0.925994
v 0.803063 0.803063 0.925994
v -0.803063 0.803063 0.925994
v -0.803063 -0.803063 0.925994
v -0.925994 -0.803063 0.803063
v -0.925994 0.803063 0.803063
v -0.925994 0.803063 -0.803063
v -0.925994 -0.803063 -0.803063
v -0.803063 -0.925994 -0.803063
v 0.803063 -0.925994 -0.803063
v 0.803063 -0.925994 0.803063
v -0.803063 -0.925994 0.803063
v 0.925994 -0.803063 -0.803063
v 0.925994 0.803063 -0.803063
v 0.925994 0.803063 0.803063
v 0.925994 -0.803063 0.803063
v -0.803063 -0.803063 -0.925994
v -0.803063 0.803063 -0.925994
v 0.803063 0.803063 -0.925994
v 0.803063 -0.803063 -0.925994
vn -0.0000 1.0000 -0.0000
vn -0.0000 -0.0000 -1.0000
vn -1.0000 -0.0000 -0.0000
vn -0.0000 -0.0000 1.0000
vn -0.0000 -1.0000 -0.0000
vn 1.0000 -0.0000 -0.0000
vt 0.776802 0.678994
vt 0.554845 0.678994
vt 0.554845 0.668766
vt 0.776802 0.668766
vt 0.776802 0.811641
vt 0.554844 0.811641
vt 0.554844 0.801414
vt 0.776802 0.801414
vt 0.776802 0.690048
vt 0.554845 0.690048
vt 0.554845 0.679820
vt 0.776802 0.679820
vt 0.776802 0.822695
vt 0.554844 0.822695
vt 0.554844 0.812468
vt 0.776802 0.812468
vt 0.776802 0.701102
vt 0.554845 0.701102
vt 0.554845 0.690874
vt 0.776802 0.690874
vt 0.777629 0.668766
vt 0.999587 0.668766
vt 0.999587 0.678994
vt 0.777629 0.678994
vt 0.276802 0.276802
vt 0.000413 0.276802
vt 0.027629 0.249587
vt 0.249587 0.249587
vt 0.000413 0.000413
vt 0.027629 0.027629
vt 0.276802 0.000413
vt 0.249587 0.027629
vt 0.000413 0.554018
vt 0.000413 0.277629
vt 0.027629 0.304845
vt 0.027629 0.526802
vt 0.276802 0.277629
vt 0.249587 0.304845
vt 0.276802 0.554018
vt 0.249587 0.526802
vt 0.554018 0.276802
vt 0.277629 0.276802
vt 0.304845 0.249587
vt 0.526802 0.249587
vt 0.277629 0.000413
vt 0.304845 0.027629
vt 0.554018 0.000413
vt 0.526802 0.027629
vt 0.554018 0.277629
vt 0.554018 0.554018
vt 0.526802 0.526802
vt 0.526802 0.304845
vt 0.277629 0.554018
vt 0.304845 0.526802
vt 0.277629 0.277629
vt 0.304844 0.304845
vt 0.000413 0.831233
vt 0.000413 0.554845
vt 0.027629 0.582060
vt 0.027629 0.804018
vt 0.276802 0.554845
vt 0.249587 0.582060
vt 0.276802 0.831233
vt 0.249587 0.804018
vt 0.277629 0.831233
vt 0.277629 0.554845
vt 0.304845 0.582060
vt 0.304845 0.804018
vt 0.554018 0.554845
vt 0.526802 0.582060
vt 0.554018 0.831233
vt 0.526802 0.804018
vt 0.776802 0.000413
vt 0.776802 0.222371
vt 0.554845 0.222371
vt 0.554845 0.000413
vt 0.776802 0.445155
vt 0.554845 0.445155
vt 0.554845 0.223198
vt 0.776802 0.223198
vt 0.776802 0.667940
vt 0.554845 0.667940
vt 0.554845 0.445982
vt 0.776802 0.445982
vt 0.999587 0.000413
vt 0.999587 0.222371
vt 0.777629 0.222371
vt 0.777629 0.000413
vt 0.999587 0.445155
vt 0.777629 0.445155
vt 0.777629 0.223198
vt 0.999587 0.223198
vt 0.999587 0.667940
vt 0.777629 0.667940
vt 0.777629 0.445982
vt 0.999587 0.445982
vt 0.554845 0.701928
vt 0.776802 0.701928
vt 0.776802 0.712156
vt 0.554845 0.712156
vt 0.776802 0.723210
vt 0.554845 0.723210
vt 0.554845 0.712982
vt 0.776802 0.712982
vt 0.999587 0.690048
vt 0.777629 0.690048
vt 0.777629 0.679820
vt 0.999587 0.679820
vt 0.999587 0.701102
vt 0.777629 0.701102
vt 0.777629 0.690874
vt 0.999587 0.690874
vt 0.776802 0.734263
vt 0.554845 0.734263
vt 0.554845 0.724036
vt 0.776802 0.724036
vt 0.554845 0.735090
vt 0.776802 0.735090
vt 0.776802 0.745317
vt 0.554845 0.745317
vt 0.999587 0.712156
vt 0.777629 0.712156
vt 0.777629 0.701928
vt 0.999587 0.701928
vt 0.776802 0.756371
vt 0.554845 0.756371
vt 0.554845 0.746144
vt 0.776802 0.746144
vt 0.777629 0.712982
vt 0.999587 0.712982
vt 0.999587 0.723210
vt 0.777629 0.723210
vt 0.777629 0.724036
vt 0.999587 0.724036
vt 0.999587 0.734264
vt 0.777629 0.734264
vt 0.777629 0.735090
vt 0.999587 0.735090
vt 0.999587 0.745318
vt 0.777629 0.745318
vt 0.554844 0.757198
vt 0.776802 0.757198
vt 0.776802 0.767425
vt 0.554844 0.767425
vt 0.554844 0.768252
vt 0.776802 0.768252
vt 0.776802 0.778479
vt 0.554844 0.778479
vt 0.777629 0.746144
vt 0.999587 0.746144
vt 0.999587 0.756371
vt 0.777629 0.756371
vt 0.999587 0.767425
vt 0.777629 0.767425
vt 0.777629 0.757198
vt 0.999587 0.757198
vt 0.554844 0.779306
vt 0.776802 0.779306
vt 0.776802 0.789533
vt 0.554844 0.789533
vt 0.554844 0.790360
vt 0.776802 0.790360
vt 0.776802 0.800587
vt 0.554844 0.800587
vt 0.777629 0.768252
vt 0.999587 0.768252
vt 0.999587 0.778479
vt 0.777629 0.778479
s 0
usemtl Material
f 16/1/1 13/2/1 37/3/1 40/4/1
f 17/5/2 18/6/2 42/7/2 41/8/2
f 12/9/3 9/10/3 33/11/3 36/12/3
f 13/13/3 14/14/3 38/15/3 37/16/3
f 9/17/4 10/18/4 34/19/4 33/20/4
f 31/21/3 32/22/3 56/23/3 55/24/3
f 1/25/1 5/26/1 10/27/1 9/28/1
f 5/26/1 7/29/1 11/30/1 10/27/1
f 7/29/1 3/31/1 12/32/1 11/30/1
f 3/31/1 1/25/1 9/28/1 12/32/1
f 4/33/4 3/34/4 14/35/4 13/36/4
f 3/34/4 7/37/4 15/38/4 14/35/4
f 7/37/4 8/39/4 16/40/4 15/38/4
f 8/39/4 4/33/4 13/36/4 16/40/4
f 8/41/3 7/42/3 18/43/3 17/44/3
f 7/42/3 5/45/3 19/46/3 18/43/3
f 5/45/3 6/47/3 20/48/3 19/46/3
f 6/47/3 8/41/3 17/44/3 20/48/3
f 6/49/5 2/50/5 22/51/5 21/52/5
f 2/50/5 4/53/5 23/54/5 22/51/5
f 4/53/5 8/55/5 24/56/5 23/54/5
f 8/55/5 6/49/5 21/52/5 24/56/5
f 2/57/6 1/58/6 26/59/6 25/60/6
f 1/58/6 3/61/6 27/62/6 26/59/6
f 3/61/6 4/63/6 28/64/6 27/62/6
f 4/63/6 2/57/6 25/60/6 28/64/6
f 6/65/2 5/66/2 30/67/2 29/68/2
f 5/66/2 1/69/2 31/70/2 30/67/2
f 1/69/2 2/71/2 32/72/2 31/70/2
f 2/71/2 6/65/2 29/68/2 32/72/2
f 33/73/1 34/74/1 35/75/1 36/76/1
f 37/77/4 38/78/4 39/79/4 40/80/4
f 41/81/3 42/82/3 43/83/3 44/84/3
f 45/85/5 46/86/5 47/87/5 48/88/5
f 49/89/6 50/90/6 51/91/6 52/92/6
f 53/93/2 54/94/2 55/95/2 56/96/2
f 21/97/4 22/98/4 46/99/4 45/100/4
f 10/101/6 11/102/6 35/103/6 34/104/6
f 20/105/1 17/106/1 41/107/1 44/108/1
f 25/109/4 26/110/4 50/111/4 49/112/4
f 14/113/5 15/114/5 39/115/5 38/116/5
f 24/117/6 21/118/6 45/119/6 48/120/6
f 29/121/6 30/122/6 54/123/6 53/124/6
f 11/125/2 12/126/2 36/127/2 35/128/2
f 18/129/5 19/130/5 43/131/5 42/132/5
f 28/133/1 25/134/1 49/135/1 52/136/1
f 15/137/6 16/138/6 40/139/6 39/140/6
f 22/141/3 23/142/3 47/143/3 46/144/3
f 32/145/1 29/146/1 53/147/1 56/148/1
f 19/149/4 20/150/4 44/151/4 43/152/4
f 26/153/5 27/154/5 51/155/5 50/156/5
f 23/157/2 24/158/2 48/159/2 47/160/2
f 30/161/5 31/162/5 55/163/5 54/164/5
f 27/165/2 28/166/2 52/167/2 51/168/2
o Plane
v -0.904549 -0.745697 -0.934982
v -0.734608 -0.915638 -0.934982
v 0.733989 0.886842 -0.934982
v 0.903931 0.716900 -0.934982
v -0.819579 -0.830667 -0.934982
v 0.818960 0.801871 -0.934982
v -0.904549 -0.745697 -0.988258
v -0.734608 -0.915638 -0.988258
v 0.733989 0.886842 -0.988258
v 0.903931 0.716900 -0.988258
v -0.819579 -0.830667 -0.988258
v 0.818960 0.801871 -0.988258
v -0.904549 -0.745697 0.934982
v -0.734608 -0.915638 0.934982
v 0.733989 0.886842 0.934982
v 0.903931 0.716900 0.934982
v -0.819579 -0.830667 0.934982
v 0.818960 0.801871 0.934982
v -0.904549 -0.745697 0.988258
v -0.734608 -0.915638 0.988258
v 0.733989 0.886842 0.988258
v 0.903931 0.716900 0.988258
v -0.819579 -0.830667 0.988258
v 0.818960 0.801871 0.988258
v 0.904549 -0.745697 -0.934982
v 0.734608 -0.915638 -0.934982
v -0.733989 0.886842 -0.934982
v -0.903931 0.716900 -0.934982
v 0.819579 -0.830667 -0.934982
v -0.818960 0.801871 -0.934982
v 0.904549 -0.745697 -0.988258
v 0.734608 -0.915638 -0.988258
v -0.733989 0.886842 -0.988258
v -0.903931 0.716900 -0.988258
v 0.819579 -0.830667 -0.988258
v -0.818960 0.801871 -0.988258
v 0.904549 -0.745697 0.934982
v 0.734608 -0.915638 0.934982
v -0.733989 0.886842 0.934982
v -0.903931 0.716900 0.934982
v 0.819579 -0.830667 0.934982
v -0.818960 0.801871 0.934982
v 0.904549 -0.745697 0.988258
v 0.734608 -0.915638 0.988258
v -0.733989 0.886842 0.988258
v -0.903931 0.716900 0.988258
v 0.819579 -0.830667 0.988258
v -0.818960 0.801871 0.988258
vn -0.0000 -0.0000 -1.0000
vn -0.0000 -0.0000 1.0000
vn 0.7058 -0.7084 -0.0000
vn -0.7071 -0.7071 -0.0000
vn 0.7071 0.7071 -0.0000
vn -0.7058 0.7084 -0.0000
vn -0.7058 -0.7084 -0.0000
vn 0.7071 -0.7071 -0.0000
vn -0.7071 0.7071 -0.0000
vn 0.7058 0.7084 -0.0000
vt 0.500000 0.000000
vt 0.500000 1.000000
vt 1.000000 1.000000
vt 1.000000 0.000000
vt 0.000000 0.000000
vt 0.000000 1.000000
s 0
f 61/169/7 62/170/7 60/171/7 58/172/7
f 57/173/7 59/174/7 62/170/7 61/169/7
f 67/169/8 64/172/8 66/171/8 68/170/8
f 63/173/8 67/169/8 68/170/8 65/174/8
f 59/174/9 57/173/9 63/173/9 65/174/9
f 60/171/10 62/170/10 68/170/10 66/171/10
f 62/170/10 59/174/10 65/174/10 68/170/10
f 61/169/11 58/172/11 64/172/11 67/169/11
f 57/173/11 61/169/11 67/169/11 63/173/11
f 58/172/12 60/171/12 66/171/12 64/172/12
f 73/169/8 70/172/8 72/171/8 74/170/8
f 69/173/8 73/169/8 74/170/8 71/174/8
f 79/169/7 80/170/7 78/171/7 76/172/7
f 75/173/7 77/174/7 80/170/7 79/169/7
f 71/174/9 77/174/9 75/173/9 69/173/9
f 72/171/10 78/171/10 80/170/10 74/170/10
f 74/170/10 80/170/10 77/174/10 71/174/10
f 73/169/11 79/169/11 76/172/11 70/172/11
f 69/173/11 75/173/11 79/169/11 73/169/11
f 70/172/12 76/172/12 78/171/12 72/171/12
f 85/169/7 82/172/7 84/171/7 86/170/7
f 81/173/7 85/169/7 86/170/7 83/174/7
f 91/169/8 92/170/8 90/171/8 88/172/8
f 87/173/8 89/174/8 92/170/8 91/169/8
f 83/174/13 89/174/13 87/173/13 81/173/13
f 84/171/14 90/171/14 92/170/14 86/170/14
f 86/170/14 92/170/14 89/174/14 83/174/14
f 85/169/15 91/169/15 88/172/15 82/172/15
f 81/173/15 87/173/15 91/169/15 85/169/15
f 82/172/16 88/172/16 90/171/16 84/171/16
f 97/169/8 98/170/8 96/171/8 94/172/8
f 93/173/8 95/174/8 98/170/8 97/169/8
f 103/169/7 100/172/7 102/171/7 104/170/7
f 99/173/7 103/169/7 104/170/7 101/174/7
f 95/174/13 93/173/13 99/173/13 101/174/13
f 96/171/14 98/170/14 104/170/14 102/171/14
f 98/170/14 95/174/14 101/174/14 104/170/14
f 97/169/15 94/172/15 100/172/15 103/169/15
f 93/173/15 97/169/15 103/169/15 99/173/15
f 94/172/16 96/171/16 102/171/16 100/172/16
