# Blender 3.6.5
# www.blender.org
mtllib flower.mtl
o Circle
v -0.000000 0.000000 -2.657584
v 0.116041 0.000000 -2.674174
v 0.171015 0.000000 -2.706962
v 0.119000 0.000000 -2.709983
v -0.064117 -0.106327 -2.619033
v -0.372605 0.000000 -2.368486
v -0.765725 0.000000 -1.914897
v -1.171805 0.000000 -1.261639
v -1.504597 0.000000 -0.473547
v -1.688696 0.000000 0.329298
v -1.684745 0.000000 1.002420
v -1.522276 0.000000 1.476474
v -1.294590 0.000000 1.879196
v -1.017153 0.000000 2.209700
v -0.700627 -0.106327 2.455287
v -0.357176 0.000000 2.606519
v -0.000000 -0.106327 2.657584
v 0.357176 0.000000 2.606519
v 0.700627 -0.106327 2.455287
v 1.017153 0.000000 2.209700
v 1.294590 0.000000 1.879196
v 1.522276 0.000000 1.476474
v 1.684745 0.000000 1.002420
v 1.688696 0.000000 0.329298
v 1.504597 0.000000 -0.473547
v 1.171805 0.000000 -1.261639
v 0.765725 0.000000 -1.914897
v 0.372605 0.000000 -2.368486
v 0.064117 0.000000 -2.619033
v -0.119000 0.000000 -2.709983
v -0.171015 0.000000 -2.706962
v -0.116041 0.000000 -2.674174
v -0.002458 -0.106327 2.455287
v -0.005442 -0.106327 2.209700
v -0.009458 -0.106327 1.879196
v -0.014352 -0.106327 1.476475
v -0.020112 -0.106327 1.002420
v -0.028292 -0.106327 0.329298
v -0.038047 -0.106327 -0.473547
v -0.047623 -0.106327 -1.261639
v -0.055561 -0.106327 -1.914898
v -0.061073 -0.106327 -2.368486
v -0.348695 0.000000 2.455287
v -0.334922 0.000000 2.209700
v -0.316387 0.000000 1.879196
v -0.293801 0.000000 1.476474
v -0.267216 0.000000 1.002420
v -0.229465 0.000000 0.329298
v -0.184440 0.000000 -0.473547
v -0.140243 0.000000 -1.261639
v -0.103606 0.000000 -1.914897
v -0.078168 0.000000 -2.368486
v -0.669821 -0.106327 2.209700
v -0.628364 -0.106327 1.879196
v -0.577847 -0.106327 1.476475
v -0.518383 -0.106327 1.002420
v -0.433948 -0.106327 0.329298
v -0.333241 -0.106327 -0.473547
v -0.234385 -0.106327 -1.261639
v -0.152442 -0.106327 -1.914898
v -0.095545 -0.106327 -2.368486
v 0.344984 0.000000 2.455287
v 0.325184 0.000000 2.209700
v 0.298538 0.000000 1.879196
v 0.266070 0.000000 1.476474
v 0.227851 0.000000 1.002420
v 0.173583 0.000000 0.329298
v 0.108856 0.000000 -0.473547
v 0.045318 0.000000 -1.261639
v -0.007348 0.000000 -1.914897
v -0.043918 0.000000 -2.368486
v 0.663615 -0.106327 2.209700
v 0.613805 -0.106327 1.879196
v 0.553111 -0.106327 1.476475
v 0.481667 -0.106327 1.002420
v 0.380222 -0.106327 0.329298
v 0.259226 -0.106327 -0.473547
v 0.140454 -0.106327 -1.261639
v 0.042002 -0.106327 -1.914898
v -0.026358 -0.106327 -2.368486
vn -0.2892 0.9571 -0.0162
vn 0.2925 0.9556 0.0367
vn 0.2048 0.9761 -0.0731
vn 0.1308 0.9910 -0.0288
vn 0.1002 0.9949 -0.0109
vn 0.0875 0.9962 0.0052
vn 0.0873 0.9961 0.0155
vn 0.1003 0.9946 0.0275
vn 0.1357 0.9895 0.0507
vn 0.2308 0.9662 0.1145
vn 0.3579 0.9327 0.0449
vn -0.9549 0.2935 0.0443
vn -0.8325 0.5526 0.0386
vn -0.6631 0.7479 0.0308
vn -0.5204 0.8536 0.0241
vn -0.4273 0.9039 0.0198
vn -0.3733 0.9275 0.0173
vn -0.3398 0.9404 0.0158
vn -0.3159 0.9487 0.0147
vn -0.2992 0.9541 0.0139
vn -0.2881 0.9575 0.0119
vn -0.9872 0.1593 0.0120
vn 0.9559 0.2928 0.0210
vn 0.8339 0.5516 0.0183
vn 0.6646 0.7470 0.0146
vn 0.5219 0.8530 0.0115
vn 0.4286 0.9035 0.0094
vn 0.3745 0.9272 0.0082
vn 0.3409 0.9401 0.0075
vn 0.3169 0.9484 0.0070
vn 0.3002 0.9539 0.0066
vn 0.2891 0.9573 0.0049
vn 0.9872 0.1587 -0.0120
vn -0.9512 0.2962 -0.0863
vn -0.8275 0.5564 -0.0751
vn -0.6575 0.7511 -0.0597
vn -0.5152 0.8558 -0.0468
vn -0.4226 0.9055 -0.0384
vn -0.3690 0.9288 -0.0335
vn -0.3359 0.9414 -0.0305
vn -0.3122 0.9496 -0.0283
vn -0.2957 0.9549 -0.0268
vn -0.9794 0.1601 -0.1229
vn 0.9481 0.2983 -0.1097
vn 0.8234 0.5594 -0.0952
vn 0.6529 0.7537 -0.0755
vn 0.5109 0.8576 -0.0591
vn 0.4188 0.9068 -0.0484
vn 0.3656 0.9298 -0.0423
vn 0.3327 0.9423 -0.0385
vn 0.3092 0.9503 -0.0358
vn 0.2928 0.9556 -0.0339
vn 0.2864 0.9578 -0.0231
vn 0.9759 0.1612 -0.1471
vn -0.1853 0.9782 0.0943
vn -0.1202 0.9917 0.0464
vn -0.0930 0.9953 0.0266
vn -0.0830 0.9964 0.0158
vn -0.0844 0.9964 0.0061
vn -0.0974 0.9952 -0.0094
vn -0.1278 0.9914 -0.0265
vn -0.2009 0.9772 -0.0692
vn -0.2877 0.9567 0.0434
vn -0.3875 0.9019 0.1907
vt 0.000000 0.000000
s 0
f 43/1/1 15/1/1 16/1/1
f 53/1/2 14/1/2 15/1/2
f 54/1/3 13/1/3 14/1/3 53/1/3
f 55/1/4 12/1/4 13/1/4 54/1/4
f 56/1/5 11/1/5 12/1/5 55/1/5
f 57/1/6 10/1/6 11/1/6 56/1/6
f 58/1/7 9/1/7 10/1/7 57/1/7
f 59/1/8 8/1/8 9/1/8 58/1/8
f 60/1/9 7/1/9 8/1/9 59/1/9
f 61/1/10 6/1/10 7/1/10 60/1/10
f 5/1/11 6/1/11 61/1/11
f 71/1/12 42/1/12 41/1/12 70/1/12
f 70/1/13 41/1/13 40/1/13 69/1/13
f 69/1/14 40/1/14 39/1/14 68/1/14
f 68/1/15 39/1/15 38/1/15 67/1/15
f 67/1/16 38/1/16 37/1/16 66/1/16
f 66/1/17 37/1/17 36/1/17 65/1/17
f 65/1/18 36/1/18 35/1/18 64/1/18
f 64/1/19 35/1/19 34/1/19 63/1/19
f 63/1/20 34/1/20 33/1/20 62/1/20
f 62/1/21 33/1/21 17/1/21 18/1/21
f 71/1/22 5/1/22 42/1/22
f 42/1/23 52/1/23 51/1/23 41/1/23
f 41/1/24 51/1/24 50/1/24 40/1/24
f 40/1/25 50/1/25 49/1/25 39/1/25
f 39/1/26 49/1/26 48/1/26 38/1/26
f 38/1/27 48/1/27 47/1/27 37/1/27
f 37/1/28 47/1/28 46/1/28 36/1/28
f 36/1/29 46/1/29 45/1/29 35/1/29
f 35/1/30 45/1/30 44/1/30 34/1/30
f 34/1/31 44/1/31 43/1/31 33/1/31
f 33/1/32 43/1/32 16/1/32 17/1/32
f 42/1/33 5/1/33 52/1/33
f 52/1/34 61/1/34 60/1/34 51/1/34
f 51/1/35 60/1/35 59/1/35 50/1/35
f 50/1/36 59/1/36 58/1/36 49/1/36
f 49/1/37 58/1/37 57/1/37 48/1/37
f 48/1/38 57/1/38 56/1/38 47/1/38
f 47/1/39 56/1/39 55/1/39 46/1/39
f 46/1/40 55/1/40 54/1/40 45/1/40
f 45/1/41 54/1/41 53/1/41 44/1/41
f 44/1/42 53/1/42 15/1/42 43/1/42
f 52/1/43 5/1/43 61/1/43
f 80/1/44 71/1/44 70/1/44 79/1/44
f 79/1/45 70/1/45 69/1/45 78/1/45
f 78/1/46 69/1/46 68/1/46 77/1/46
f 77/1/47 68/1/47 67/1/47 76/1/47
f 76/1/48 67/1/48 66/1/48 75/1/48
f 75/1/49 66/1/49 65/1/49 74/1/49
f 74/1/50 65/1/50 64/1/50 73/1/50
f 73/1/51 64/1/51 63/1/51 72/1/51
f 72/1/52 63/1/52 62/1/52 19/1/52
f 19/1/53 62/1/53 18/1/53
f 80/1/54 5/1/54 71/1/54
f 28/1/55 80/1/55 79/1/55 27/1/55
f 27/1/56 79/1/56 78/1/56 26/1/56
f 26/1/57 78/1/57 77/1/57 25/1/57
f 25/1/58 77/1/58 76/1/58 24/1/58
f 24/1/59 76/1/59 75/1/59 23/1/59
f 23/1/60 75/1/60 74/1/60 22/1/60
f 22/1/61 74/1/61 73/1/61 21/1/61
f 21/1/62 73/1/62 72/1/62 20/1/62
f 20/1/63 72/1/63 19/1/63
f 2/1/64 3/1/64 4/1/64 5/1/64 80/1/64 28/1/64 29/1/64 30/1/64 31/1/64 32/1/64 1/1/64
