# Blender v3.6.2 OBJ File: 'Keypad.blend'
# www.blender.org
mtllib Keypad2.mtl
o Cube
v 5.974630 1.000000 -7.983475
v 5.974630 -1.000000 -7.983475
v 5.974630 1.000000 7.983475
v 5.974630 -1.000000 7.983475
v -5.974630 1.000000 -7.983475
v -5.974630 -1.000000 -7.983475
v -5.974630 1.000000 7.983475
v -5.974630 -1.000000 7.983475
v -5.974630 -1.000000 10.983474
v -5.974630 1.000000 10.983474
v 5.974630 1.000000 10.983474
v 5.974630 -1.000000 10.983474
v 2.250000 0.011203 1.750000
v 2.250000 2.011203 1.750000
v 2.250000 0.011203 -0.250000
v 2.250000 2.011203 -0.250000
v 4.250000 0.011203 1.750000
v 4.250000 2.011203 1.750000
v 4.250000 0.011203 -0.250000
v 4.250000 2.011203 -0.250000
v -1.000000 0.011203 1.750000
v -1.000000 2.011203 1.750000
v -1.000000 0.011203 -0.250000
v -1.000000 2.011203 -0.250000
v 1.000000 0.011203 1.750000
v 1.000000 2.011203 1.750000
v 1.000000 0.011203 -0.250000
v 1.000000 2.011203 -0.250000
v -4.250000 0.011203 4.500000
v -4.250000 2.011203 4.500000
v -4.250000 0.011203 2.500000
v -4.250000 2.011203 2.500000
v -2.250000 0.011203 4.500000
v -2.250000 2.011203 4.500000
v -2.250000 0.011203 2.500000
v -2.250000 2.011203 2.500000
v -4.250000 0.011203 7.250000
v -4.250000 2.011203 7.250000
v -4.250000 0.011203 5.250000
v -4.250000 2.011203 5.250000
v -2.250000 0.011203 7.250000
v -2.250000 2.011203 7.250000
v -2.250000 0.011203 5.250000
v -2.250000 2.011203 5.250000
v -1.000000 0.011203 4.500000
v -1.000000 2.011203 4.500000
v -1.000000 0.011203 2.500000
v -1.000000 2.011203 2.500000
v 1.000000 0.011203 4.500000
v 1.000000 2.011203 4.500000
v 1.000000 0.011203 2.500000
v 1.000000 2.011203 2.500000
v -1.000000 0.011203 7.250000
v -1.000000 2.011203 7.250000
v -1.000000 0.011203 5.250000
v -1.000000 2.011203 5.250000
v 1.000000 0.011203 7.250000
v 1.000000 2.011203 7.250000
v 1.000000 0.011203 5.250000
v 1.000000 2.011203 5.250000
v 2.250000 0.011203 4.500000
v 2.250000 2.011203 4.500000
v 2.250000 0.011203 2.500000
v 2.250000 2.011203 2.500000
v 4.250000 0.011203 4.500000
v 4.250000 2.011203 4.500000
v 4.250000 0.011203 2.500000
v 4.250000 2.011203 2.500000
v 2.250000 0.000000 7.250000
v 2.250000 2.000000 7.250000
v 2.250000 0.000000 5.250000
v 2.250000 2.000000 5.250000
v 4.250000 0.000000 7.250000
v 4.250000 2.000000 7.250000
v 4.250000 0.000000 5.250000
v 4.250000 2.000000 5.250000
v -4.250000 0.000000 1.750000
v -4.250000 2.000000 1.750000
v -4.250000 0.000000 -0.250000
v -4.250000 2.000000 -0.250000
v -2.250000 0.000000 1.750000
v -2.250000 2.000000 1.750000
v -2.250000 0.000000 -0.250000
v -2.250000 2.000000 -0.250000
v 2.250000 0.000000 10.000000
v 2.250000 2.000000 10.000000
v 2.250000 0.000000 8.000000
v 2.250000 2.000000 8.000000
v 4.250000 0.000000 10.000000
v 4.250000 2.000000 10.000000
v 4.250000 0.000000 8.000000
v 4.250000 2.000000 8.000000
v -1.000000 0.000000 10.000000
v -1.000000 2.000000 10.000000
v -1.000000 0.000000 8.000000
v -1.000000 2.000000 8.000000
v 1.000000 0.000000 10.000000
v 1.000000 2.000000 10.000000
v 1.000000 0.000000 8.000000
v 1.000000 2.000000 8.000000
v -4.250000 0.000000 10.000000
v -4.250000 2.000000 10.000000
v -4.250000 0.000000 8.000000
v -4.250000 2.000000 8.000000
v -2.250000 0.000000 10.000000
v -2.250000 2.000000 10.000000
v -2.250000 0.000000 8.000000
v -2.250000 2.000000 8.000000
v -4.259518 -0.500000 -4.000000
v -4.259518 1.500000 -4.000000
v -4.259518 -0.500000 -6.000000
v -4.259518 1.500000 -6.000000
v 4.259518 -0.500000 -4.000000
v 4.259518 1.500000 -4.000000
v 4.259518 -0.500000 -6.000000
v 4.259518 1.500000 -6.000000
v -4.259518 -0.500000 -2.000000
v -4.259518 1.500000 -2.000000
v 4.259518 1.500000 -2.000000
v 4.259518 -0.500000 -2.000000
vt 0.375250 0.579223
vt 0.000000 0.579223
vt 0.000000 0.091616
vt 0.375250 0.091616
vt 0.750501 0.091616
vt 0.375250 0.091616
vt 0.375250 0.000000
vt 0.750501 0.000000
vt 0.813308 0.487607
vt 0.750501 0.487607
vt 0.750501 -0.000000
vt 0.813308 -0.000000
vt 0.750501 0.579223
vt 0.375250 0.579223
vt 0.876116 0.579223
vt 0.813308 0.579223
vt 0.813308 0.091616
vt 0.876116 0.091616
vt 0.938923 0.375250
vt 0.876116 0.375250
vt 0.876116 0.000000
vt 0.938923 0.000000
vt 0.938923 0.750501
vt 0.876116 0.750501
vt 0.876116 0.375250
vt 0.938923 0.375250
vt 0.000000 0.000000
vt 0.375250 0.000000
vt 0.813308 -0.000000
vt 0.876116 -0.000000
vt 0.813308 0.579223
vt 0.750501 0.579223
vt 0.617692 0.956067
vt 0.617692 0.893259
vt 0.678769 0.893259
vt 0.678769 0.956067
vt 0.495538 0.642030
vt 0.495538 0.579223
vt 0.558345 0.579223
vt 0.558345 0.642030
vt 0.678769 0.956067
vt 0.678769 0.893259
vt 0.739846 0.893259
vt 0.739846 0.956067
vt 0.558345 0.642030
vt 0.558345 0.579223
vt 0.621152 0.579223
vt 0.621152 0.642030
vt 0.431000 0.889799
vt 0.431000 0.952606
vt 0.369923 0.952606
vt 0.369923 0.889799
vt 0.800923 0.830452
vt 0.800923 0.893259
vt 0.739846 0.893259
vt 0.739846 0.830452
vt 0.739846 0.956067
vt 0.739846 0.893259
vt 0.800923 0.893259
vt 0.800923 0.956067
vt 0.621152 0.642030
vt 0.621152 0.579223
vt 0.683959 0.579223
vt 0.683959 0.642030
vt 0.800923 0.956067
vt 0.800923 0.893259
vt 0.862000 0.893259
vt 0.862000 0.956067
vt 0.495538 0.704837
vt 0.495538 0.642030
vt 0.558345 0.642030
vt 0.558345 0.704837
vt 0.492077 0.889799
vt 0.492077 0.952606
vt 0.431000 0.952606
vt 0.431000 0.889799
vt 0.556615 0.893259
vt 0.556615 0.956067
vt 0.495537 0.956067
vt 0.495537 0.893259
vt 0.800923 0.893259
vt 0.800923 0.830452
vt 0.862000 0.830452
vt 0.862000 0.893259
vt 0.558345 0.704837
vt 0.558345 0.642030
vt 0.621152 0.642030
vt 0.621152 0.704837
vt 0.000000 0.909559
vt 0.000000 0.846752
vt 0.061077 0.846752
vt 0.061077 0.909559
vt 0.621152 0.704837
vt 0.621152 0.642030
vt 0.683959 0.642030
vt 0.683959 0.704837
vt 0.870651 0.579223
vt 0.870651 0.642030
vt 0.809574 0.642030
vt 0.809574 0.579223
vt 0.678769 0.830452
vt 0.678769 0.893259
vt 0.617692 0.893259
vt 0.617692 0.830452
vt 0.061077 0.972366
vt 0.061077 0.909559
vt 0.122154 0.909559
vt 0.122154 0.972366
vt 0.683959 0.642030
vt 0.683959 0.579223
vt 0.746767 0.579223
vt 0.746767 0.642030
vt 0.122154 0.972366
vt 0.122154 0.909559
vt 0.183231 0.909559
vt 0.183231 0.972366
vt 0.683959 0.704837
vt 0.683959 0.642030
vt 0.746767 0.642030
vt 0.746767 0.704837
vt 0.870651 0.704837
vt 0.870651 0.767645
vt 0.809574 0.767645
vt 0.809574 0.704837
vt 0.870651 0.767645
vt 0.870651 0.830452
vt 0.809574 0.830452
vt 0.809574 0.767645
vt 0.061077 0.909559
vt 0.061077 0.846752
vt 0.122154 0.846752
vt 0.122154 0.909559
vt 0.369923 0.764184
vt 0.369923 0.701377
vt 0.432730 0.701377
vt 0.432730 0.764184
vt 0.122154 0.909559
vt 0.122154 0.846752
vt 0.183231 0.846752
vt 0.183231 0.909559
vt 0.432730 0.764184
vt 0.432730 0.701377
vt 0.495538 0.701377
vt 0.495538 0.764184
vt 0.244308 0.846752
vt 0.244308 0.909559
vt 0.183231 0.846752
vt 0.305385 0.846752
vt 0.305385 0.909559
vt 0.244308 0.909559
vt 0.244308 0.846752
vt 0.183231 0.972366
vt 0.183231 0.909559
vt 0.244308 0.909559
vt 0.244308 0.972366
vt 0.495538 0.767645
vt 0.495538 0.704837
vt 0.558345 0.704837
vt 0.558345 0.767645
vt 0.244308 0.972366
vt 0.244308 0.909559
vt 0.305385 0.909559
vt 0.305385 0.972366
vt 0.558345 0.767645
vt 0.558345 0.704837
vt 0.621152 0.704837
vt 0.621152 0.767645
vt 0.366462 0.909559
vt 0.366462 0.972366
vt 0.305385 0.909559
vt 0.984154 0.830452
vt 0.984154 0.893259
vt 0.923077 0.893259
vt 0.923077 0.830452
vt 0.305385 0.909559
vt 0.305385 0.846752
vt 0.366462 0.846752
vt 0.366462 0.909559
vt 0.621152 0.767645
vt 0.621152 0.704837
vt 0.683959 0.704837
vt 0.683959 0.767645
vt 0.862000 0.893259
vt 0.862000 0.830452
vt 0.923077 0.830452
vt 0.923077 0.893259
vt 0.683959 0.767645
vt 0.683959 0.704837
vt 0.746767 0.704837
vt 0.746767 0.767645
vt 0.739846 0.830452
vt 0.739846 0.893259
vt 0.678769 0.893259
vt 0.678769 0.830452
vt 0.870651 0.642030
vt 0.870651 0.704837
vt 0.809574 0.704837
vt 0.809574 0.642030
vt 0.923077 0.956067
vt 0.923077 0.893259
vt 0.984154 0.893259
vt 0.984154 0.956067
vt 0.746767 0.642030
vt 0.746767 0.579223
vt 0.809574 0.579223
vt 0.809574 0.642030
vt 0.931728 0.830452
vt 0.931728 0.767645
vt 0.992805 0.767645
vt 0.992805 0.830452
vt 0.746767 0.704837
vt 0.746767 0.642030
vt 0.809574 0.642030
vt 0.809574 0.704837
vt 0.431000 0.826991
vt 0.431000 0.889799
vt 0.369923 0.889799
vt 0.369923 0.826991
vt 0.492077 0.826991
vt 0.492077 0.889799
vt 0.431000 0.889799
vt 0.431000 0.826991
vt 0.862000 0.956067
vt 0.862000 0.893259
vt 0.923077 0.893259
vt 0.923077 0.956067
vt 0.746767 0.767645
vt 0.746767 0.704837
vt 0.809574 0.704837
vt 0.809574 0.767645
vt -0.000000 0.972366
vt -0.000000 0.909559
vt 0.061077 0.909559
vt 0.061077 0.972366
vt 0.369923 0.826991
vt 0.369923 0.764184
vt 0.432730 0.764184
vt 0.432730 0.826991
vt 0.931728 0.767645
vt 0.931728 0.830452
vt 0.870651 0.830452
vt 0.870651 0.767645
vt 0.617692 0.893259
vt 0.617692 0.956067
vt 0.556615 0.956067
vt 0.556615 0.893259
vt 0.938923 0.062807
vt 0.938923 0.000000
vt 1.000000 0.000000
vt 1.000000 0.062807
vt 0.432730 0.826991
vt 0.432730 0.764184
vt 0.495538 0.764184
vt 0.495538 0.826991
vt 0.938923 0.125615
vt 0.938923 0.062807
vt 1.000000 0.062807
vt 1.000000 0.125615
vt 0.495538 0.830452
vt 0.495538 0.767645
vt 0.558345 0.767645
vt 0.558345 0.830452
vt 0.556615 0.830452
vt 0.556615 0.893259
vt 0.495538 0.893259
vt 0.495538 0.830452
vt 1.000000 0.125615
vt 1.000000 0.188422
vt 0.938923 0.188422
vt 0.938923 0.125615
vt 0.938923 0.251229
vt 0.938923 0.188422
vt 1.000000 0.188422
vt 1.000000 0.251229
vt 0.558345 0.830452
vt 0.558345 0.767645
vt 0.621152 0.767645
vt 0.621152 0.830452
vt 0.938923 0.314037
vt 0.938923 0.251229
vt 1.000000 0.251229
vt 1.000000 0.314037
vt 0.621152 0.830452
vt 0.621152 0.767645
vt 0.683959 0.767645
vt 0.683959 0.830452
vt 1.000000 0.314037
vt 1.000000 0.376844
vt 0.938923 0.376844
vt 0.938923 0.314037
vt 1.000000 0.376844
vt 1.000000 0.439651
vt 0.938923 0.439651
vt 0.938923 0.376844
vt 0.938923 0.502459
vt 0.938923 0.439651
vt 1.000000 0.439651
vt 1.000000 0.502459
vt 0.683959 0.830452
vt 0.683959 0.767645
vt 0.746767 0.767645
vt 0.746767 0.830452
vt 0.938923 0.565266
vt 0.938923 0.502459
vt 1.000000 0.502459
vt 1.000000 0.565266
vt 0.746767 0.830452
vt 0.746767 0.767645
vt 0.809574 0.767645
vt 0.809574 0.830452
vt 1.000000 0.565266
vt 1.000000 0.628073
vt 0.938923 0.628073
vt 0.938923 0.565266
vt 0.617692 0.830452
vt 0.617692 0.893259
vt 0.556615 0.893259
vt 0.556615 0.830452
vt 0.432730 0.640300
vt 0.369923 0.640300
vt 0.369923 0.579223
vt 0.432730 0.579223
vt 0.307116 0.846752
vt 0.244308 0.846752
vt 0.244308 0.579223
vt 0.307116 0.579223
vt 0.495538 0.701377
vt 0.432730 0.701377
vt 0.432730 0.640300
vt 0.495538 0.640300
vt 0.061077 0.579223
vt 0.061077 0.846752
vt 0.000000 0.846752
vt 0.000000 0.579223
vt 0.244308 0.579223
vt 0.244308 0.846752
vt 0.183231 0.846752
vt 0.183231 0.579223
vt 0.122154 0.579223
vt 0.122154 0.846752
vt 0.369923 0.846752
vt 0.307116 0.846752
vt 0.307116 0.579223
vt 0.369923 0.579223
vt 0.432730 0.579223
vt 0.495537 0.579223
vt 0.432730 0.701377
vt 0.369923 0.701377
vt 0.122154 0.846752
vt 0.122154 0.579223
vn 0.0000 1.0000 0.0000
vn 0.0000 -1.0000 0.0000
vn -1.0000 0.0000 0.0000
vn 1.0000 0.0000 0.0000
vn 0.0000 0.0000 -1.0000
vn 0.0000 0.0000 1.0000
usemtl Material
s off
f 1/1/1 5/2/1 7/3/1 3/4/1
f 8/5/2 4/6/2 12/7/2 9/8/2
f 8/9/3 7/10/3 5/11/3 6/12/3
f 6/13/2 2/14/2 4/6/2 8/5/2
f 2/15/4 1/16/4 3/17/4 4/18/4
f 6/19/5 5/20/5 1/21/5 2/22/5
f 12/23/6 11/24/6 10/25/6 9/26/6
f 3/4/1 7/3/1 10/27/1 11/28/1
f 4/18/4 3/17/4 11/29/4 12/30/4
f 7/10/3 8/9/3 9/31/3 10/32/3
f 13/33/3 14/34/3 16/35/3 15/36/3
f 15/37/5 16/38/5 20/39/5 19/40/5
f 19/41/4 20/42/4 18/43/4 17/44/4
f 17/45/6 18/46/6 14/47/6 13/48/6
f 15/49/2 19/50/2 17/51/2 13/52/2
f 20/53/1 16/54/1 14/55/1 18/56/1
f 21/57/3 22/58/3 24/59/3 23/60/3
f 23/61/5 24/62/5 28/63/5 27/64/5
f 27/65/4 28/66/4 26/67/4 25/68/4
f 25/69/6 26/70/6 22/71/6 21/72/6
f 23/73/2 27/74/2 25/75/2 21/76/2
f 28/77/1 24/78/1 22/79/1 26/80/1
f 29/81/3 30/82/3 32/83/3 31/84/3
f 31/85/5 32/86/5 36/87/5 35/88/5
f 35/89/4 36/90/4 34/91/4 33/92/4
f 33/93/6 34/94/6 30/95/6 29/96/6
f 31/97/2 35/98/2 33/99/2 29/100/2
f 36/101/1 32/102/1 30/103/1 34/104/1
f 37/105/3 38/106/3 40/107/3 39/108/3
f 39/109/5 40/110/5 44/111/5 43/112/5
f 43/113/4 44/114/4 42/115/4 41/116/4
f 41/117/6 42/118/6 38/119/6 37/120/6
f 39/121/2 43/122/2 41/123/2 37/124/2
f 44/125/1 40/126/1 38/127/1 42/128/1
f 45/129/3 46/130/3 48/131/3 47/132/3
f 47/133/5 48/134/5 52/135/5 51/136/5
f 51/137/4 52/138/4 50/139/4 49/140/4
f 49/141/6 50/142/6 46/143/6 45/144/6
f 47/145/2 51/146/2 49/140/2 45/147/2
f 52/148/1 48/149/1 46/150/1 50/151/1
f 53/152/3 54/153/3 56/154/3 55/155/3
f 55/156/5 56/157/5 60/158/5 59/159/5
f 59/160/4 60/161/4 58/162/4 57/163/4
f 57/164/6 58/165/6 54/166/6 53/167/6
f 55/168/2 59/169/2 57/163/2 53/170/2
f 60/171/1 56/172/1 54/173/1 58/174/1
f 61/175/3 62/176/3 64/177/3 63/178/3
f 63/179/5 64/180/5 68/181/5 67/182/5
f 67/183/4 68/184/4 66/185/4 65/186/4
f 65/187/6 66/188/6 62/189/6 61/190/6
f 63/191/2 67/192/2 65/193/2 61/194/2
f 68/195/1 64/196/1 62/197/1 66/198/1
f 69/199/3 70/200/3 72/201/3 71/202/3
f 71/203/5 72/204/5 76/205/5 75/206/5
f 75/207/4 76/208/4 74/209/4 73/210/4
f 73/211/6 74/212/6 70/213/6 69/214/6
f 71/215/2 75/216/2 73/217/2 69/218/2
f 76/219/1 72/220/1 70/221/1 74/222/1
f 77/223/3 78/224/3 80/225/3 79/226/3
f 79/227/5 80/228/5 84/229/5 83/230/5
f 83/231/4 84/232/4 82/233/4 81/234/4
f 81/235/6 82/236/6 78/237/6 77/238/6
f 79/239/2 83/240/2 81/241/2 77/242/2
f 84/243/1 80/244/1 78/245/1 82/246/1
f 85/247/3 86/248/3 88/249/3 87/250/3
f 87/251/5 88/252/5 92/253/5 91/254/5
f 91/255/4 92/256/4 90/257/4 89/258/4
f 89/259/6 90/260/6 86/261/6 85/262/6
f 87/263/2 91/264/2 89/265/2 85/266/2
f 92/267/1 88/268/1 86/269/1 90/270/1
f 93/271/3 94/272/3 96/273/3 95/274/3
f 95/275/5 96/276/5 100/277/5 99/278/5
f 99/279/4 100/280/4 98/281/4 97/282/4
f 97/283/6 98/284/6 94/285/6 93/286/6
f 95/287/2 99/288/2 97/289/2 93/290/2
f 100/291/1 96/292/1 94/293/1 98/294/1
f 101/295/3 102/296/3 104/297/3 103/298/3
f 103/299/5 104/300/5 108/301/5 107/302/5
f 107/303/4 108/304/4 106/305/4 105/306/4
f 105/307/6 106/308/6 102/309/6 101/310/6
f 103/311/2 107/312/2 105/313/2 101/314/2
f 108/315/1 104/316/1 102/317/1 106/318/1
usemtl (null)
f 109/319/3 110/320/3 112/321/3 111/322/3
f 111/323/5 112/324/5 116/325/5 115/326/5
f 115/327/4 116/328/4 114/329/4 113/330/4
f 114/331/1 110/332/1 118/333/1 119/334/1
f 111/335/2 115/336/2 113/337/2 109/338/2
f 116/339/1 112/340/1 110/332/1 114/331/1
f 120/341/6 119/342/6 118/343/6 117/344/6
f 113/330/4 114/329/4 119/345/4 120/346/4
f 110/320/3 109/319/3 117/347/3 118/348/3
f 109/338/2 113/337/2 120/349/2 117/350/2
