# Blender 3.6.2
# www.blender.org
mtllib Keypad.mtl
o Cube
v 5.974630 1.000000 -7.983475
v 5.974630 -1.000000 -7.983475
v 5.974630 1.000000 7.983475
v 5.974630 -1.000000 7.983475
v -5.974630 1.000000 -7.983475
v -5.974630 -1.000000 -7.983475
v -5.974630 1.000000 7.983475
v -5.974630 -1.000000 7.983475
v -5.974630 -1.000000 10.983474
v -5.974630 1.000000 10.983474
v 5.974630 1.000000 10.983474
v 5.974630 -1.000000 10.983474
v 2.250000 0.011203 1.750000
v 2.250000 2.011203 1.750000
v 2.250000 0.011203 -0.250000
v 2.250000 2.011203 -0.250000
v 4.250000 0.011203 1.750000
v 4.250000 2.011203 1.750000
v 4.250000 0.011203 -0.250000
v 4.250000 2.011203 -0.250000
v -1.000000 0.011203 1.750000
v -1.000000 2.011203 1.750000
v -1.000000 0.011203 -0.250000
v -1.000000 2.011203 -0.250000
v 1.000000 0.011203 1.750000
v 1.000000 2.011203 1.750000
v 1.000000 0.011203 -0.250000
v 1.000000 2.011203 -0.250000
v -4.250000 0.011203 4.500000
v -4.250000 2.011203 4.500000
v -4.250000 0.011203 2.500000
v -4.250000 2.011203 2.500000
v -2.250000 0.011203 4.500000
v -2.250000 2.011203 4.500000
v -2.250000 0.011203 2.500000
v -2.250000 2.011203 2.500000
v -4.250000 0.011203 7.250000
v -4.250000 2.011203 7.250000
v -4.250000 0.011203 5.250000
v -4.250000 2.011203 5.250000
v -2.250000 0.011203 7.250000
v -2.250000 2.011203 7.250000
v -2.250000 0.011203 5.250000
v -2.250000 2.011203 5.250000
v -1.000000 0.011203 4.500000
v -1.000000 2.011203 4.500000
v -1.000000 0.011203 2.500000
v -1.000000 2.011203 2.500000
v 1.000000 0.011203 4.500000
v 1.000000 2.011203 4.500000
v 1.000000 0.011203 2.500000
v 1.000000 2.011203 2.500000
v -1.000000 0.011203 7.250000
v -1.000000 2.011203 7.250000
v -1.000000 0.011203 5.250000
v -1.000000 2.011203 5.250000
v 1.000000 0.011203 7.250000
v 1.000000 2.011203 7.250000
v 1.000000 0.011203 5.250000
v 1.000000 2.011203 5.250000
v 2.250000 0.011203 4.500000
v 2.250000 2.011203 4.500000
v 2.250000 0.011203 2.500000
v 2.250000 2.011203 2.500000
v 4.250000 0.011203 4.500000
v 4.250000 2.011203 4.500000
v 4.250000 0.011203 2.500000
v 4.250000 2.011203 2.500000
v 2.250000 0.000000 7.250000
v 2.250000 2.000000 7.250000
v 2.250000 0.000000 5.250000
v 2.250000 2.000000 5.250000
v 4.250000 0.000000 7.250000
v 4.250000 2.000000 7.250000
v 4.250000 0.000000 5.250000
v 4.250000 2.000000 5.250000
v -4.250000 0.000000 1.750000
v -4.250000 2.000000 1.750000
v -4.250000 0.000000 -0.250000
v -4.250000 2.000000 -0.250000
v -2.250000 0.000000 1.750000
v -2.250000 2.000000 1.750000
v -2.250000 0.000000 -0.250000
v -2.250000 2.000000 -0.250000
v 2.250000 0.000000 10.000000
v 2.250000 2.000000 10.000000
v 2.250000 0.000000 8.000000
v 2.250000 2.000000 8.000000
v 4.250000 0.000000 10.000000
v 4.250000 2.000000 10.000000
v 4.250000 0.000000 8.000000
v 4.250000 2.000000 8.000000
v -1.000000 0.000000 10.000000
v -1.000000 2.000000 10.000000
v -1.000000 0.000000 8.000000
v -1.000000 2.000000 8.000000
v 1.000000 0.000000 10.000000
v 1.000000 2.000000 10.000000
v 1.000000 0.000000 8.000000
v 1.000000 2.000000 8.000000
v -4.250000 0.000000 10.000000
v -4.250000 2.000000 10.000000
v -4.250000 0.000000 8.000000
v -4.250000 2.000000 8.000000
v -2.250000 0.000000 10.000000
v -2.250000 2.000000 10.000000
v -2.250000 0.000000 8.000000
v -2.250000 2.000000 8.000000
vn -0.0000 1.0000 -0.0000
vn -0.0000 -1.0000 -0.0000
vn -1.0000 -0.0000 -0.0000
vn 1.0000 -0.0000 -0.0000
vn -0.0000 -0.0000 -1.0000
vn -0.0000 -0.0000 1.0000
vt 0.625000 0.500000
vt 0.875000 0.500000
vt 0.875000 0.750000
vt 0.625000 0.750000
vt 0.125000 0.750000
vt 0.375000 0.750000
vt 0.375000 0.000000
vt 0.625000 0.000000
vt 0.625000 0.250000
vt 0.375000 0.250000
vt 0.125000 0.500000
vt 0.375000 0.500000
vt 0.625000 1.000000
vt 0.375000 1.000000
s 0
usemtl Material
f 1/1/1 5/2/1 7/3/1 3/4/1
f 8/5/2 4/6/2 12/6/2 9/5/2
f 8/7/3 7/8/3 5/9/3 6/10/3
f 6/11/2 2/12/2 4/6/2 8/5/2
f 2/12/4 1/1/4 3/4/4 4/6/4
f 6/10/5 5/9/5 1/1/5 2/12/5
f 12/6/6 11/4/6 10/13/6 9/14/6
f 3/4/1 7/3/1 10/3/1 11/4/1
f 4/6/4 3/4/4 11/4/4 12/6/4
f 7/8/3 8/7/3 9/7/3 10/8/3
f 13/7/3 14/8/3 16/9/3 15/10/3
f 15/10/5 16/9/5 20/1/5 19/12/5
f 19/12/4 20/1/4 18/4/4 17/6/4
f 17/6/6 18/4/6 14/13/6 13/14/6
f 15/11/2 19/12/2 17/6/2 13/5/2
f 20/1/1 16/2/1 14/3/1 18/4/1
f 21/7/3 22/8/3 24/9/3 23/10/3
f 23/10/5 24/9/5 28/1/5 27/12/5
f 27/12/4 28/1/4 26/4/4 25/6/4
f 25/6/6 26/4/6 22/13/6 21/14/6
f 23/11/2 27/12/2 25/6/2 21/5/2
f 28/1/1 24/2/1 22/3/1 26/4/1
f 29/7/3 30/8/3 32/9/3 31/10/3
f 31/10/5 32/9/5 36/1/5 35/12/5
f 35/12/4 36/1/4 34/4/4 33/6/4
f 33/6/6 34/4/6 30/13/6 29/14/6
f 31/11/2 35/12/2 33/6/2 29/5/2
f 36/1/1 32/2/1 30/3/1 34/4/1
f 37/7/3 38/8/3 40/9/3 39/10/3
f 39/10/5 40/9/5 44/1/5 43/12/5
f 43/12/4 44/1/4 42/4/4 41/6/4
f 41/6/6 42/4/6 38/13/6 37/14/6
f 39/11/2 43/12/2 41/6/2 37/5/2
f 44/1/1 40/2/1 38/3/1 42/4/1
f 45/7/3 46/8/3 48/9/3 47/10/3
f 47/10/5 48/9/5 52/1/5 51/12/5
f 51/12/4 52/1/4 50/4/4 49/6/4
f 49/6/6 50/4/6 46/13/6 45/14/6
f 47/11/2 51/12/2 49/6/2 45/5/2
f 52/1/1 48/2/1 46/3/1 50/4/1
f 53/7/3 54/8/3 56/9/3 55/10/3
f 55/10/5 56/9/5 60/1/5 59/12/5
f 59/12/4 60/1/4 58/4/4 57/6/4
f 57/6/6 58/4/6 54/13/6 53/14/6
f 55/11/2 59/12/2 57/6/2 53/5/2
f 60/1/1 56/2/1 54/3/1 58/4/1
f 61/7/3 62/8/3 64/9/3 63/10/3
f 63/10/5 64/9/5 68/1/5 67/12/5
f 67/12/4 68/1/4 66/4/4 65/6/4
f 65/6/6 66/4/6 62/13/6 61/14/6
f 63/11/2 67/12/2 65/6/2 61/5/2
f 68/1/1 64/2/1 62/3/1 66/4/1
f 69/7/3 70/8/3 72/9/3 71/10/3
f 71/10/5 72/9/5 76/1/5 75/12/5
f 75/12/4 76/1/4 74/4/4 73/6/4
f 73/6/6 74/4/6 70/13/6 69/14/6
f 71/11/2 75/12/2 73/6/2 69/5/2
f 76/1/1 72/2/1 70/3/1 74/4/1
f 77/7/3 78/8/3 80/9/3 79/10/3
f 79/10/5 80/9/5 84/1/5 83/12/5
f 83/12/4 84/1/4 82/4/4 81/6/4
f 81/6/6 82/4/6 78/13/6 77/14/6
f 79/11/2 83/12/2 81/6/2 77/5/2
f 84/1/1 80/2/1 78/3/1 82/4/1
f 85/7/3 86/8/3 88/9/3 87/10/3
f 87/10/5 88/9/5 92/1/5 91/12/5
f 91/12/4 92/1/4 90/4/4 89/6/4
f 89/6/6 90/4/6 86/13/6 85/14/6
f 87/11/2 91/12/2 89/6/2 85/5/2
f 92/1/1 88/2/1 86/3/1 90/4/1
f 93/7/3 94/8/3 96/9/3 95/10/3
f 95/10/5 96/9/5 100/1/5 99/12/5
f 99/12/4 100/1/4 98/4/4 97/6/4
f 97/6/6 98/4/6 94/13/6 93/14/6
f 95/11/2 99/12/2 97/6/2 93/5/2
f 100/1/1 96/2/1 94/3/1 98/4/1
f 101/7/3 102/8/3 104/9/3 103/10/3
f 103/10/5 104/9/5 108/1/5 107/12/5
f 107/12/4 108/1/4 106/4/4 105/6/4
f 105/6/6 106/4/6 102/13/6 101/14/6
f 103/11/2 107/12/2 105/6/2 101/5/2
f 108/1/1 104/2/1 102/3/1 106/4/1
o Cube.001
v -4.259518 -0.500000 -4.000000
v -4.259518 1.500000 -4.000000
v -4.259518 -0.500000 -6.000000
v -4.259518 1.500000 -6.000000
v 4.259518 -0.500000 -4.000000
v 4.259518 1.500000 -4.000000
v 4.259518 -0.500000 -6.000000
v 4.259518 1.500000 -6.000000
v -4.259518 -0.500000 -2.000000
v -4.259518 1.500000 -2.000000
v 4.259518 1.500000 -2.000000
v 4.259518 -0.500000 -2.000000
vn -1.0000 -0.0000 -0.0000
vn -0.0000 -0.0000 -1.0000
vn 1.0000 -0.0000 -0.0000
vn -0.0000 1.0000 -0.0000
vn -0.0000 -1.0000 -0.0000
vn -0.0000 -0.0000 1.0000
vt 0.375000 0.000000
vt 0.625000 0.000000
vt 0.625000 0.250000
vt 0.375000 0.250000
vt 0.625000 0.500000
vt 0.375000 0.500000
vt 0.625000 0.750000
vt 0.375000 0.750000
vt 0.875000 0.750000
vt 0.125000 0.500000
vt 0.125000 0.750000
vt 0.875000 0.500000
vt 0.625000 1.000000
vt 0.375000 1.000000
s 0
f 109/15/7 110/16/7 112/17/7 111/18/7
f 111/18/8 112/17/8 116/19/8 115/20/8
f 115/20/9 116/19/9 114/21/9 113/22/9
f 114/21/10 110/23/10 118/23/10 119/21/10
f 111/24/11 115/20/11 113/22/11 109/25/11
f 116/19/10 112/26/10 110/23/10 114/21/10
f 120/22/12 119/21/12 118/27/12 117/28/12
f 113/22/9 114/21/9 119/21/9 120/22/9
f 110/16/7 109/15/7 117/15/7 118/16/7
f 109/25/11 113/22/11 120/22/11 117/25/11
