# Blender 3.6.5
# www.blender.org
mtllib Switch.mtl
o Cube
v 0.260918 7.773786 -1.658558
v 0.260918 1.189823 -1.658558
v 0.260918 7.773786 1.658558
v 0.260918 1.189823 1.658558
v -0.260918 7.773786 -1.658558
v -0.260918 1.189823 -1.658558
v -0.260918 7.773786 1.658558
v -0.260918 1.189823 1.658558
v -0.260918 5.172870 -0.155494
v -0.260918 5.172870 0.155494
v -0.260918 3.790739 0.155494
v -0.260918 3.790739 -0.155494
v 0.260918 5.172870 0.155494
v 0.260918 5.172870 -0.155494
v 0.260918 3.790739 0.155494
v 0.260918 3.790739 -0.155494
vn -0.0000 1.0000 -0.0000
vn -0.0000 -0.0000 1.0000
vn -1.0000 -0.0000 -0.0000
vn -0.0000 -1.0000 -0.0000
vn 1.0000 -0.0000 -0.0000
vn -0.0000 -0.0000 -1.0000
vt 0.625000 0.500000
vt 0.875000 0.500000
vt 0.875000 0.750000
vt 0.625000 0.750000
vt 0.375000 0.750000
vt 0.625000 1.000000
vt 0.375000 1.000000
vt 0.375000 0.000000
vt 0.625000 0.000000
vt 0.625000 0.250000
vt 0.375000 0.250000
vt 0.473760 0.136719
vt 0.526240 0.136719
vt 0.526240 0.113281
vt 0.473760 0.113281
vt 0.125000 0.500000
vt 0.375000 0.500000
vt 0.125000 0.750000
vt 0.473760 0.636719
vt 0.526240 0.636719
vt 0.526240 0.613281
vt 0.473760 0.613281
vt 0.625000 0.310074
vt 0.625000 0.261282
vt 0.375000 0.261282
vt 0.375000 0.310074
vt 0.625000 0.988718
vt 0.625000 0.939926
vt 0.375000 0.939926
vt 0.375000 0.988718
vt 0.136282 0.500000
vt 0.136282 0.750000
vt 0.185074 0.750000
vt 0.185074 0.500000
vt 0.863718 0.500000
vt 0.814926 0.500000
vt 0.814926 0.750000
vt 0.863718 0.750000
s 0
usemtl Material
f 1/1/1 5/2/1 7/3/1 3/4/1
f 4/5/2 3/4/2 7/6/2 8/7/2
f 8/8/3 7/9/3 5/10/3 6/11/3 12/12/3 9/13/3 10/14/3 11/15/3
f 6/11/3 8/8/3 11/15/3 12/12/3
f 6/16/4 2/17/4 4/5/4 8/18/4
f 2/17/5 1/1/5 3/4/5 4/5/5 15/19/5 13/20/5 14/21/5 16/22/5
f 15/19/5 4/5/5 2/17/5 16/22/5
f 6/11/6 5/10/6 1/1/6 2/17/6
usemtl 
f 14/23/2 9/24/2 12/25/2 16/26/2
f 10/27/6 13/28/6 15/29/6 11/30/6
f 12/31/1 11/32/1 15/33/1 16/34/1
f 9/35/4 14/36/4 13/37/4 10/38/4
o Sphere
v 0.266731 6.836651 -0.211468
v 0.276733 6.726734 -0.215611
v 0.266731 6.616816 -0.211468
v 0.266731 6.942345 -0.101551
v 0.298177 6.836651 -0.107805
v 0.308795 6.726734 -0.109917
v 0.298177 6.616816 -0.107805
v 0.266731 6.511123 -0.101551
v 0.266731 6.942345 0.101550
v 0.298177 6.836651 0.107805
v 0.308795 6.726734 0.109918
v 0.298177 6.616816 0.107805
v 0.266731 6.511123 0.101550
v 0.266731 6.836651 0.211468
v 0.276733 6.726734 0.215611
v 0.266731 6.616816 0.211468
v 0.256573 6.872898 -0.207260
v 0.260956 6.596209 -0.209076
v 0.257147 6.836651 -0.229399
v 0.258888 6.726734 -0.248996
v 0.260629 6.616816 -0.222883
v 0.255122 6.964490 -0.099241
v 0.262434 6.502925 -0.100696
v 0.262304 6.511123 -0.116146
v 0.255473 6.942345 -0.138665
v 0.254823 6.983335 0.000000
v 0.262719 6.484905 -0.000000
v 0.255122 6.964490 0.099241
v 0.262434 6.502925 0.100696
v 0.256573 6.872898 0.207260
v 0.260956 6.596209 0.209076
v 0.255473 6.942345 0.138665
v 0.262304 6.511123 0.116146
v 0.260629 6.616816 0.222883
v 0.257147 6.836651 0.229399
v 0.258888 6.726734 0.248996
v 0.244869 6.914658 -0.202412
v 0.244869 6.942345 -0.173619
v 0.244869 6.984046 -0.097202
v 0.244869 7.001957 0.000000
v 0.244869 6.984046 0.097202
v 0.244869 6.942345 0.173619
v 0.244869 6.914658 0.202412
v 0.244869 6.511123 0.173619
v 0.244869 6.538810 0.202412
v 0.244869 6.836651 0.252368
v 0.244869 6.726734 0.275223
v 0.244869 6.616816 0.252368
v 0.244869 6.469421 0.097202
v 0.244869 6.451510 0.000000
v 0.244869 6.511123 -0.173619
v 0.244869 6.469421 -0.097202
v 0.244869 6.726734 -0.275223
v 0.244869 6.616816 -0.252369
v 0.244869 6.836651 -0.252369
v 0.244869 6.538809 -0.202412
v 0.275584 6.936985 -0.028173
v 0.275584 6.942345 -0.011667
v 0.306020 6.836651 -0.028173
v 0.316846 6.726734 -0.028173
v 0.306020 6.616816 -0.028173
v 0.275584 6.516482 -0.028173
v 0.275584 6.511123 -0.011667
v 0.275584 6.508973 -0.000000
v 0.316846 6.726734 0.028173
v 0.306020 6.616816 0.028173
v 0.275584 6.511123 0.011667
v 0.275584 6.516482 0.028173
v 0.275584 6.942345 0.011667
v 0.275584 6.936985 0.028173
v 0.306020 6.836651 0.028173
v 0.275584 6.944494 -0.000000
vn 0.8651 0.1942 -0.4624
vn 0.8841 0.2903 -0.3662
vn 0.9063 0.1939 -0.3754
vn 0.8819 -0.0000 -0.4714
vn 0.9239 -0.0000 -0.3827
vn 0.8651 -0.1942 -0.4624
vn 0.9063 -0.1939 -0.3754
vn 0.8841 -0.2903 -0.3662
vn 0.9622 0.1939 -0.1914
vn 0.9808 -0.0000 -0.1951
vn 0.9622 -0.1939 -0.1914
vn 0.9070 -0.3805 -0.1804
vn 0.8847 -0.3811 -0.2684
vn 0.8650 -0.4714 -0.1721
vn 0.8847 0.3811 -0.2684
vn 0.8650 0.4714 -0.1721
vn 0.9070 0.3805 -0.1804
vn -0.2020 0.7489 -0.6312
vn -0.2028 0.6690 -0.7150
vn 0.8819 0.4714 -0.0000
vn -0.2343 0.9270 -0.2928
vn -0.2202 0.9755 -0.0000
vn 0.7455 0.1474 0.6501
vn 0.9692 0.2419 -0.0468
vn 0.9888 0.1458 0.0321
vn 0.7605 -0.0000 0.6494
vn 0.7455 -0.1474 0.6501
vn 0.9888 -0.1458 0.0321
vn 0.9692 -0.2419 -0.0468
vn 0.9631 -0.2691 -0.0000
vn 0.8819 -0.4714 -0.0000
vn 0.9808 -0.0000 0.1951
vn 0.9622 -0.1939 0.1914
vn 0.7455 -0.1474 -0.6501
vn 0.7605 -0.0000 -0.6494
vn 0.9070 -0.3805 0.1804
vn 0.9692 -0.2419 0.0468
vn 0.9888 -0.1458 -0.0321
vn 0.8650 -0.4714 0.1721
vn -0.2343 0.9270 0.2928
vn 0.8650 0.4714 0.1721
vn 0.9888 0.1458 -0.0321
vn 0.9692 0.2419 0.0468
vn 0.9070 0.3805 0.1804
vn 0.9622 0.1939 0.1914
vn 0.7455 0.1474 -0.6501
vn 0.8847 0.3811 0.2684
vn -0.2020 0.7489 0.6312
vn -0.2028 0.6690 0.7150
vn 0.8841 0.2903 0.3662
vn 0.9063 0.1939 0.3754
vn 0.9239 -0.0000 0.3827
vn 0.9063 -0.1939 0.3754
vn -0.2020 -0.7489 0.6312
vn 0.8847 -0.3811 0.2684
vn 0.8841 -0.2903 0.3662
vn -0.2028 -0.6690 0.7150
vn 0.8651 -0.1942 0.4624
vn -0.2320 0.3363 0.9127
vn 0.8651 0.1942 0.4624
vn -0.2177 -0.0000 0.9760
vn 0.8819 -0.0000 0.4714
vn -0.2320 -0.3363 0.9127
vn -0.2343 -0.9270 0.2928
vn -0.2201 -0.9755 -0.0000
vn 0.9631 0.2691 -0.0000
vn -0.2020 -0.7489 -0.6312
vn -0.2343 -0.9270 -0.2928
vn -0.2320 -0.3363 -0.9127
vn -0.2177 -0.0000 -0.9760
vn -0.2320 0.3363 -0.9127
vn -0.2028 -0.6690 -0.7150
vn -0.0000 -0.0000 1.0000
vn 1.0000 -0.0000 -0.0000
vn -0.0000 -0.0000 -1.0000
vt 0.568365 0.562500
vt 0.562500 0.583934
vt 0.562500 0.562500
vt 0.573211 0.500000
vt 0.562500 0.500000
vt 0.566234 0.437500
vt 0.562500 0.437500
vt 0.562500 0.425314
vt 0.531250 0.562500
vt 0.531250 0.500000
vt 0.531250 0.437500
vt 0.531250 0.375000
vt 0.535921 0.375000
vt 0.531250 0.369740
vt 0.543128 0.625000
vt 0.531250 0.639209
vt 0.531250 0.625000
vt 0.554314 0.625000
vt 0.562500 0.608628
vt 0.500000 0.651301
vt 0.531250 0.651757
vt 0.500000 0.663250
vt 0.508167 0.562500
vt 0.503590 0.625000
vt 0.508632 0.621831
vt 0.508010 0.500000
vt 0.508167 0.437500
vt 0.508632 0.378169
vt 0.503590 0.375000
vt 0.500000 0.373621
vt 0.500000 0.358178
vt 0.468750 0.500000
vt 0.468750 0.437500
vt 0.491833 0.437500
vt 0.491990 0.500000
vt 0.468750 0.375000
vt 0.496410 0.375000
vt 0.491368 0.378169
vt 0.468750 0.369740
vt 0.468750 0.651757
vt 0.468750 0.639209
vt 0.491368 0.621831
vt 0.496410 0.625000
vt 0.468750 0.625000
vt 0.468750 0.562500
vt 0.491833 0.562500
vt 0.456872 0.625000
vt 0.445686 0.625000
vt 0.437500 0.608628
vt 0.437500 0.583934
vt 0.437500 0.562500
vt 0.437500 0.500000
vt 0.437500 0.437500
vt 0.445686 0.375000
vt 0.464079 0.375000
vt 0.437500 0.425314
vt 0.437500 0.391372
vt 0.433766 0.437500
vt 0.424121 0.562500
vt 0.431635 0.562500
vt 0.418375 0.500000
vt 0.426790 0.500000
vt 0.424121 0.437500
vt 0.468750 0.348243
vt 0.500000 0.336750
vt 0.500000 0.626379
vt 0.554314 0.375000
vt 0.531250 0.348243
vt 0.575879 0.437500
vt 0.581625 0.500000
vt 0.575879 0.562500
vt 0.562500 0.391372
vt 0.488293 0.603611
vt 0.479984 0.607845
vt 0.477035 0.610285
vt 0.472594 0.616762
vt 0.470686 0.625000
vt 0.472594 0.633238
vt 0.477035 0.639715
vt 0.479984 0.642155
vt 0.488293 0.646389
vt 0.500000 0.648326
vt 0.511707 0.646389
vt 0.520016 0.642155
vt 0.522965 0.639715
vt 0.527406 0.633238
vt 0.529314 0.625000
vt 0.527406 0.616762
vt 0.522965 0.610285
vt 0.520016 0.607845
vt 0.511707 0.603611
vt 0.500000 0.601674
vt 0.440119 0.415039
vt 0.500000 0.384819
vt 0.559881 0.415039
vt 0.614541 0.500000
vt 0.385459 0.500000
vt 0.382539 0.676764
vt 0.381368 0.625000
vt 0.382539 0.573236
vt 0.617461 0.573236
vt 0.618632 0.625000
vt 0.617461 0.676764
vt 0.614541 0.750000
vt 0.385459 0.750000
vt 0.500000 0.865181
vt 0.440119 0.834961
vt 0.559881 0.834961
s 1
f 35/39/7 33/40/8 17/41/9
f 36/42/10 35/39/7 17/41/9 18/43/11
f 37/44/12 36/42/10 18/43/11 19/45/13
f 34/46/14 37/44/12 19/45/13
f 18/43/11 17/41/9 21/47/15 22/48/16
f 19/45/13 18/43/11 22/48/16 23/49/17
f 34/46/14 19/45/13 23/49/17 24/50/18 40/51/19
f 39/52/20 40/51/19 24/50/18
f 41/53/21 38/54/22 20/55/23
f 54/56/24 41/53/21 33/40/8 53/57/25
f 42/58/26 38/54/22 55/59/27 56/60/28
f 75/61/29 21/47/15 20/55/23 74/62/30 73/63/31
f 76/64/32 22/48/16 21/47/15 75/61/29
f 23/49/17 22/48/16 76/64/32 77/65/33
f 24/50/18 23/49/17 77/65/33 78/66/34 79/67/35
f 80/68/36 43/69/37 39/52/20 24/50/18 79/67/35
f 27/70/38 28/71/39 82/72/40 81/73/41
f 28/71/39 29/74/42 83/75/43 84/76/44 82/72/40
f 83/75/43 29/74/42 45/77/45 43/69/37 80/68/36
f 57/78/46 44/79/47 42/58/26 56/60/28
f 86/80/48 85/81/49 25/82/50 26/83/51 87/84/52
f 26/83/51 27/70/38 81/73/41 87/84/52
f 48/85/53 44/79/47 57/78/46 58/86/54
f 59/87/55 46/88/56 48/85/53 58/86/54
f 27/70/38 26/83/51 30/89/57 31/90/58
f 28/71/39 27/70/38 31/90/58 32/91/59
f 60/92/60 49/93/61 47/94/62 61/95/63
f 45/77/45 29/74/42 49/93/61
f 47/94/62 32/91/59 50/96/64
f 62/97/65 51/98/66 46/88/56 59/87/55
f 63/99/67 52/100/68 51/98/66 62/97/65
f 64/101/69 50/96/64 52/100/68 63/99/67
f 31/90/58 30/89/57 51/98/66 52/100/68
f 32/91/59 31/90/58 52/100/68 50/96/64
f 47/94/62 49/93/61 29/74/42 28/71/39 32/91/59
f 61/95/63 47/94/62 50/96/64 64/101/69
f 46/88/56 30/89/57 26/83/51 25/82/50 48/85/53
f 30/89/57 46/88/56 51/98/66
f 65/102/70 45/77/45 49/93/61 60/92/60
f 25/82/50 44/79/47 48/85/53
f 66/103/71 43/69/37 45/77/45 65/102/70
f 88/104/72 42/58/26 44/79/47 25/82/50 85/81/49
f 67/105/73 40/51/19 39/52/20 68/106/74
f 68/106/74 39/52/20 43/69/37 66/103/71
f 38/54/22 41/53/21 54/56/24 55/59/27
f 74/62/30 20/55/23 38/54/22 42/58/26 88/104/72
f 36/42/10 37/44/12 70/107/75 69/108/76
f 71/109/77 35/39/7 36/42/10 69/108/76
f 70/107/75 37/44/12 34/46/14 72/110/78
f 72/110/78 34/46/14 40/51/19 67/105/73
f 33/40/8 35/39/7 71/109/77 53/57/25
f 41/53/21 20/55/23 21/47/15 17/41/9 33/40/8
f 70/111/75 72/112/78 67/113/73 68/114/74 66/115/71 65/116/70 60/117/60 61/118/63 64/119/69 63/120/67 62/121/65 59/122/55 58/123/54 57/124/46 56/125/28 55/126/27 54/127/24 53/128/25 71/129/77 69/130/76
s 0
f 77/131/79 76/132/79 75/133/79 73/134/79 78/135/79
f 83/136/80 80/137/80 79/138/80 78/135/80 73/134/80 74/139/80 88/140/80 85/141/80 86/142/80 84/143/80
f 81/144/81 82/145/81 84/143/81 86/142/81 87/146/81
o Sphere.001
v 0.276731 2.117522 -0.211468
v 0.286733 2.007605 -0.215611
v 0.276731 1.897688 -0.211468
v 0.276731 2.223216 -0.101551
v 0.308177 2.117522 -0.107805
v 0.318795 2.007605 -0.109917
v 0.308177 1.897688 -0.107805
v 0.276731 1.791994 -0.101551
v 0.276731 2.223216 0.101550
v 0.308177 2.117522 0.107805
v 0.318795 2.007605 0.109918
v 0.308177 1.897688 0.107805
v 0.276731 1.791994 0.101550
v 0.276731 2.117522 0.211468
v 0.286733 2.007605 0.215611
v 0.276731 1.897688 0.211468
v 0.266573 2.153770 -0.207260
v 0.270956 1.877080 -0.209076
v 0.267147 2.117522 -0.229399
v 0.268888 2.007605 -0.248996
v 0.270629 1.897688 -0.222883
v 0.265122 2.245361 -0.099241
v 0.272434 1.783797 -0.100696
v 0.272304 1.791994 -0.116146
v 0.265473 2.223216 -0.138665
v 0.264823 2.264206 0.000000
v 0.272719 1.765776 -0.000000
v 0.265122 2.245361 0.099241
v 0.272434 1.783797 0.100696
v 0.266573 2.153769 0.207260
v 0.270956 1.877081 0.209076
v 0.265473 2.223216 0.138665
v 0.272304 1.791994 0.116146
v 0.270629 1.897688 0.222883
v 0.267147 2.117522 0.229399
v 0.268888 2.007605 0.248996
v 0.254869 2.195529 -0.202412
v 0.254869 2.223216 -0.173619
v 0.254869 2.264918 -0.097202
v 0.254869 2.282829 0.000000
v 0.254869 2.264918 0.097202
v 0.254869 2.223216 0.173619
v 0.254869 2.195529 0.202412
v 0.254869 1.791994 0.173619
v 0.254869 1.819681 0.202412
v 0.254869 2.117522 0.252368
v 0.254869 2.007605 0.275223
v 0.254869 1.897688 0.252368
v 0.254869 1.750292 0.097202
v 0.254869 1.732381 0.000000
v 0.254869 1.791994 -0.173619
v 0.254869 1.750292 -0.097202
v 0.254869 2.007605 -0.275223
v 0.254869 1.897688 -0.252369
v 0.254869 2.117522 -0.252369
v 0.254869 1.819681 -0.202412
v 0.285584 2.217857 -0.028173
v 0.285584 2.223216 -0.011667
v 0.316020 2.117522 -0.028173
v 0.326846 2.007605 -0.028173
v 0.316020 1.897688 -0.028173
v 0.285584 1.797354 -0.028173
v 0.285584 1.791994 -0.011667
v 0.285584 1.789844 -0.000000
v 0.326846 2.007605 0.028173
v 0.316020 1.897688 0.028173
v 0.285584 1.791994 0.011667
v 0.285584 1.797354 0.028173
v 0.285584 2.223216 0.011667
v 0.285584 2.217857 0.028173
v 0.316020 2.117522 0.028173
v 0.285584 2.225366 -0.000000
vn 0.8651 0.1942 -0.4624
vn 0.8841 0.2903 -0.3662
vn 0.9063 0.1939 -0.3754
vn 0.8819 -0.0000 -0.4714
vn 0.9239 -0.0000 -0.3827
vn 0.8651 -0.1942 -0.4624
vn 0.9063 -0.1939 -0.3754
vn 0.8841 -0.2903 -0.3662
vn 0.9622 0.1939 -0.1914
vn 0.9808 -0.0000 -0.1951
vn 0.9622 -0.1939 -0.1914
vn 0.9070 -0.3805 -0.1804
vn 0.8847 -0.3811 -0.2684
vn 0.8650 -0.4714 -0.1721
vn 0.8847 0.3811 -0.2684
vn 0.8650 0.4714 -0.1721
vn 0.9070 0.3805 -0.1804
vn -0.2020 0.7489 -0.6312
vn -0.2028 0.6690 -0.7150
vn 0.8819 0.4714 -0.0000
vn -0.2343 0.9270 -0.2928
vn -0.2202 0.9755 -0.0000
vn 0.7455 0.1474 0.6501
vn 0.9692 0.2419 -0.0468
vn 0.9888 0.1458 0.0321
vn 0.7605 -0.0000 0.6494
vn 0.7455 -0.1474 0.6501
vn 0.9888 -0.1458 0.0321
vn 0.9692 -0.2419 -0.0468
vn 0.9631 -0.2691 -0.0000
vn 0.8819 -0.4714 -0.0000
vn 0.9808 -0.0000 0.1951
vn 0.9622 -0.1939 0.1914
vn 0.7455 -0.1474 -0.6501
vn 0.7605 -0.0000 -0.6494
vn 0.9070 -0.3805 0.1804
vn 0.9692 -0.2419 0.0468
vn 0.9888 -0.1458 -0.0321
vn 0.8650 -0.4714 0.1721
vn -0.2343 0.9270 0.2928
vn 0.8650 0.4714 0.1721
vn 0.9888 0.1458 -0.0321
vn 0.9692 0.2419 0.0468
vn 0.9070 0.3805 0.1804
vn 0.9622 0.1939 0.1914
vn 0.7455 0.1474 -0.6501
vn 0.8847 0.3811 0.2684
vn -0.2020 0.7489 0.6312
vn -0.2028 0.6690 0.7150
vn 0.8841 0.2903 0.3662
vn 0.9063 0.1939 0.3754
vn 0.9239 -0.0000 0.3827
vn 0.9063 -0.1939 0.3754
vn -0.2020 -0.7489 0.6312
vn 0.8847 -0.3811 0.2684
vn 0.8841 -0.2903 0.3662
vn -0.2028 -0.6690 0.7150
vn 0.8651 -0.1942 0.4624
vn -0.2320 0.3363 0.9127
vn 0.8651 0.1942 0.4624
vn -0.2177 -0.0000 0.9760
vn 0.8819 -0.0000 0.4714
vn -0.2320 -0.3363 0.9127
vn -0.2343 -0.9270 0.2928
vn -0.2201 -0.9755 -0.0000
vn 0.9631 0.2691 -0.0000
vn -0.2020 -0.7489 -0.6312
vn -0.2343 -0.9270 -0.2928
vn -0.2320 -0.3363 -0.9127
vn -0.2177 -0.0000 -0.9760
vn -0.2320 0.3363 -0.9127
vn -0.2028 -0.6690 -0.7150
vn -0.0000 -0.0000 1.0000
vn 1.0000 -0.0000 -0.0000
vn -0.0000 -0.0000 -1.0000
vt 0.568365 0.562500
vt 0.562500 0.583934
vt 0.562500 0.562500
vt 0.573211 0.500000
vt 0.562500 0.500000
vt 0.566234 0.437500
vt 0.562500 0.437500
vt 0.562500 0.425314
vt 0.531250 0.562500
vt 0.531250 0.500000
vt 0.531250 0.437500
vt 0.531250 0.375000
vt 0.535921 0.375000
vt 0.531250 0.369740
vt 0.543128 0.625000
vt 0.531250 0.639209
vt 0.531250 0.625000
vt 0.554314 0.625000
vt 0.562500 0.608628
vt 0.500000 0.651301
vt 0.531250 0.651757
vt 0.500000 0.663250
vt 0.508167 0.562500
vt 0.503590 0.625000
vt 0.508632 0.621831
vt 0.508010 0.500000
vt 0.508167 0.437500
vt 0.508632 0.378169
vt 0.503590 0.375000
vt 0.500000 0.373621
vt 0.500000 0.358178
vt 0.468750 0.500000
vt 0.468750 0.437500
vt 0.491833 0.437500
vt 0.491990 0.500000
vt 0.468750 0.375000
vt 0.496410 0.375000
vt 0.491368 0.378169
vt 0.468750 0.369740
vt 0.468750 0.651757
vt 0.468750 0.639209
vt 0.491368 0.621831
vt 0.496410 0.625000
vt 0.468750 0.625000
vt 0.468750 0.562500
vt 0.491833 0.562500
vt 0.456872 0.625000
vt 0.445686 0.625000
vt 0.437500 0.608628
vt 0.437500 0.583934
vt 0.437500 0.562500
vt 0.437500 0.500000
vt 0.437500 0.437500
vt 0.445686 0.375000
vt 0.464079 0.375000
vt 0.437500 0.425314
vt 0.437500 0.391372
vt 0.433766 0.437500
vt 0.424121 0.562500
vt 0.431635 0.562500
vt 0.418375 0.500000
vt 0.426790 0.500000
vt 0.424121 0.437500
vt 0.468750 0.348243
vt 0.500000 0.336750
vt 0.500000 0.626379
vt 0.554314 0.375000
vt 0.531250 0.348243
vt 0.575879 0.437500
vt 0.581625 0.500000
vt 0.575879 0.562500
vt 0.562500 0.391372
vt 0.488293 0.603611
vt 0.479984 0.607845
vt 0.477035 0.610285
vt 0.472594 0.616762
vt 0.470686 0.625000
vt 0.472594 0.633238
vt 0.477035 0.639715
vt 0.479984 0.642155
vt 0.488293 0.646389
vt 0.500000 0.648326
vt 0.511707 0.646389
vt 0.520016 0.642155
vt 0.522965 0.639715
vt 0.527406 0.633238
vt 0.529314 0.625000
vt 0.527406 0.616762
vt 0.522965 0.610285
vt 0.520016 0.607845
vt 0.511707 0.603611
vt 0.500000 0.601674
vt 0.440119 0.415039
vt 0.500000 0.384819
vt 0.559881 0.415039
vt 0.614541 0.500000
vt 0.385459 0.500000
vt 0.382539 0.676764
vt 0.381368 0.625000
vt 0.382539 0.573236
vt 0.617461 0.573236
vt 0.618632 0.625000
vt 0.617461 0.676764
vt 0.614541 0.750000
vt 0.385459 0.750000
vt 0.500000 0.865181
vt 0.440119 0.834961
vt 0.559881 0.834961
s 1
f 107/147/82 105/148/83 89/149/84
f 108/150/85 107/147/82 89/149/84 90/151/86
f 109/152/87 108/150/85 90/151/86 91/153/88
f 106/154/89 109/152/87 91/153/88
f 90/151/86 89/149/84 93/155/90 94/156/91
f 91/153/88 90/151/86 94/156/91 95/157/92
f 106/154/89 91/153/88 95/157/92 96/158/93 112/159/94
f 111/160/95 112/159/94 96/158/93
f 113/161/96 110/162/97 92/163/98
f 126/164/99 113/161/96 105/148/83 125/165/100
f 114/166/101 110/162/97 127/167/102 128/168/103
f 147/169/104 93/155/90 92/163/98 146/170/105 145/171/106
f 148/172/107 94/156/91 93/155/90 147/169/104
f 95/157/92 94/156/91 148/172/107 149/173/108
f 96/158/93 95/157/92 149/173/108 150/174/109 151/175/110
f 152/176/111 115/177/112 111/160/95 96/158/93 151/175/110
f 99/178/113 100/179/114 154/180/115 153/181/116
f 100/179/114 101/182/117 155/183/118 156/184/119 154/180/115
f 155/183/118 101/182/117 117/185/120 115/177/112 152/176/111
f 129/186/121 116/187/122 114/166/101 128/168/103
f 158/188/123 157/189/124 97/190/125 98/191/126 159/192/127
f 98/191/126 99/178/113 153/181/116 159/192/127
f 120/193/128 116/187/122 129/186/121 130/194/129
f 131/195/130 118/196/131 120/193/128 130/194/129
f 99/178/113 98/191/126 102/197/132 103/198/133
f 100/179/114 99/178/113 103/198/133 104/199/134
f 132/200/135 121/201/136 119/202/137 133/203/138
f 117/185/120 101/182/117 121/201/136
f 119/202/137 104/199/134 122/204/139
f 134/205/140 123/206/141 118/196/131 131/195/130
f 135/207/142 124/208/143 123/206/141 134/205/140
f 136/209/144 122/204/139 124/208/143 135/207/142
f 103/198/133 102/197/132 123/206/141 124/208/143
f 104/199/134 103/198/133 124/208/143 122/204/139
f 119/202/137 121/201/136 101/182/117 100/179/114 104/199/134
f 133/203/138 119/202/137 122/204/139 136/209/144
f 118/196/131 102/197/132 98/191/126 97/190/125 120/193/128
f 102/197/132 118/196/131 123/206/141
f 137/210/145 117/185/120 121/201/136 132/200/135
f 97/190/125 116/187/122 120/193/128
f 138/211/146 115/177/112 117/185/120 137/210/145
f 160/212/147 114/166/101 116/187/122 97/190/125 157/189/124
f 139/213/148 112/159/94 111/160/95 140/214/149
f 140/214/149 111/160/95 115/177/112 138/211/146
f 110/162/97 113/161/96 126/164/99 127/167/102
f 146/170/105 92/163/98 110/162/97 114/166/101 160/212/147
f 108/150/85 109/152/87 142/215/150 141/216/151
f 143/217/152 107/147/82 108/150/85 141/216/151
f 142/215/150 109/152/87 106/154/89 144/218/153
f 144/218/153 106/154/89 112/159/94 139/213/148
f 105/148/83 107/147/82 143/217/152 125/165/100
f 113/161/96 92/163/98 93/155/90 89/149/84 105/148/83
f 142/219/150 144/220/153 139/221/148 140/222/149 138/223/146 137/224/145 132/225/135 133/226/138 136/227/144 135/228/142 134/229/140 131/230/130 130/231/129 129/232/121 128/233/103 127/234/102 126/235/99 125/236/100 143/237/152 141/238/151
s 0
f 149/239/154 148/240/154 147/241/154 145/242/154 150/243/154
f 155/244/155 152/245/155 151/246/155 150/243/155 145/242/155 146/247/155 160/248/155 157/249/155 158/250/155 156/251/155
f 153/252/156 154/253/156 156/251/156 158/250/156 159/254/156
o Cube.002
v -0.521587 4.319976 0.152276
v -0.673587 4.583248 0.152276
v -0.521587 4.319976 -0.152276
v -0.673587 4.583248 -0.152276
v 1.047724 5.226017 0.152276
v 0.895724 5.489289 0.152276
v 1.047724 5.226017 -0.152276
v 0.895724 5.489289 -0.152276
vn -0.8660 -0.5000 -0.0000
vn -0.0000 -0.0000 -1.0000
vn 0.8660 0.5000 -0.0000
vn -0.0000 -0.0000 1.0000
vn 0.5000 -0.8660 -0.0000
vn -0.5000 0.8660 -0.0000
vt 0.375000 0.000000
vt 0.625000 0.000000
vt 0.625000 0.250000
vt 0.375000 0.250000
vt 0.625000 0.500000
vt 0.375000 0.500000
vt 0.625000 0.750000
vt 0.375000 0.750000
vt 0.625000 1.000000
vt 0.375000 1.000000
vt 0.125000 0.500000
vt 0.125000 0.750000
vt 0.875000 0.500000
vt 0.875000 0.750000
s 0
f 161/255/157 162/256/157 164/257/157 163/258/157
f 163/258/158 164/257/158 168/259/158 167/260/158
f 167/260/159 168/259/159 166/261/159 165/262/159
f 165/262/160 166/261/160 162/263/160 161/264/160
f 163/265/161 167/260/161 165/262/161 161/266/161
f 168/259/162 164/267/162 162/268/162 166/261/162
o Cube.003
v 0.175464 2.930161 0.152276
v -0.128536 2.930161 0.152276
v 0.175464 2.930161 -0.152276
v -0.128536 2.930161 -0.152276
v 0.175464 4.742244 0.152276
v -0.128536 4.742244 0.152276
v 0.175464 4.742244 -0.152276
v -0.128536 4.742244 -0.152276
vn -0.0000 -1.0000 -0.0000
vn -0.0000 -0.0000 -1.0000
vn -0.0000 1.0000 -0.0000
vn -0.0000 -0.0000 1.0000
vn 1.0000 -0.0000 -0.0000
vn -1.0000 -0.0000 -0.0000
vt 0.375000 0.000000
vt 0.625000 0.000000
vt 0.625000 0.250000
vt 0.375000 0.250000
vt 0.625000 0.500000
vt 0.375000 0.500000
vt 0.625000 0.750000
vt 0.375000 0.750000
vt 0.625000 1.000000
vt 0.375000 1.000000
vt 0.125000 0.500000
vt 0.125000 0.750000
vt 0.875000 0.500000
vt 0.875000 0.750000
s 0
f 169/269/163 170/270/163 172/271/163 171/272/163
f 171/272/164 172/271/164 176/273/164 175/274/164
f 175/274/165 176/273/165 174/275/165 173/276/165
f 173/276/166 174/275/166 170/277/166 169/278/166
f 171/279/167 175/274/167 173/276/167 169/280/167
f 176/273/168 172/281/168 170/282/168 174/275/168
o Cube.004
v -1.189569 5.542420 0.152276
v -1.341569 5.279148 0.152276
v -1.189569 5.542420 -0.152276
v -1.341569 5.279148 -0.152276
v 0.147049 4.770723 -0.152276
v -0.018342 4.515183 -0.152276
v 0.188800 4.746618 0.152276
v 0.023409 4.491078 0.152276
vn -0.0000 -0.0000 -1.0000
vn -0.8660 0.5000 -0.0000
vn 0.5000 0.8660 -0.0000
vn -0.0000 -0.0000 1.0000
vn -0.5000 -0.8660 -0.0000
vt 0.375000 0.287069
vt 0.625000 0.289203
vt 0.625000 0.500000
vt 0.375000 0.500000
vt 0.625000 0.750000
vt 0.375000 0.750000
vt 0.162069 0.500000
vt 0.155418 0.750000
vt 0.625000 0.967449
vt 0.375000 0.969582
vt 0.835797 0.500000
vt 0.842449 0.750000
s 0
f 181/283/169 182/284/169 180/285/169 179/286/169
f 179/286/170 180/285/170 178/287/170 177/288/170
f 181/289/171 179/286/171 177/288/171 183/290/171
f 177/288/172 178/287/172 184/291/172 183/292/172
f 180/285/173 182/293/173 184/294/173 178/287/173
