# Blender v3.6.2 OBJ File: 'Table.blend'
# www.blender.org
mtllib Table2.mtl
o Cube.001_Cube.006
v 5.400000 2.788938 13.900000
v 5.400000 10.788938 13.900000
v 5.400000 2.788938 12.100000
v 5.400000 10.788938 12.100000
v 6.600000 2.788938 13.900000
v 6.600000 10.788938 13.900000
v 6.600000 2.788938 12.100000
v 6.600000 10.788938 12.100000
v 8.000000 11.816614 -14.999998
v 8.000000 10.816614 -14.999998
v 8.000000 11.816614 14.999999
v 8.000000 10.816614 14.999999
v -8.000000 11.816614 -14.999998
v -8.000000 10.816614 -14.999998
v -8.000000 10.816614 14.999999
v -7.973098 10.816614 14.949558
v 8.000000 11.816614 -14.999998
v 8.000000 11.816614 14.999999
v -8.000000 11.816614 -14.999998
v -7.973098 11.814933 14.949558
v -6.599999 2.788938 13.899999
v -6.599999 10.788938 13.899999
v -6.599999 2.788938 12.099999
v -6.599999 10.788938 12.099999
v -5.400000 2.788938 13.899999
v -5.400000 10.788938 13.899999
v -5.400000 2.788938 12.099999
v -5.400000 10.788938 12.099999
v 5.400000 2.788938 -12.100000
v 5.400000 10.788938 -12.100000
v 5.400000 2.788938 -13.900000
v 5.400000 10.788938 -13.900000
v 6.600000 2.788938 -12.100000
v 6.600000 10.788938 -12.100000
v 6.600000 2.788938 -13.900000
v 6.600000 10.788938 -13.900000
v -6.599999 2.788938 -12.100000
v -6.599999 10.788938 -12.100000
v -6.599999 2.788938 -13.900000
v -6.599999 10.788938 -13.900000
v -5.400000 2.788938 -12.100000
v -5.400000 10.788938 -12.100000
v -5.400000 2.788938 -13.900000
v -5.400000 10.788938 -13.900000
vt 0.036980 0.653313
vt 0.000000 0.653313
vt -0.000000 0.616333
vt 0.036980 0.616333
vt 0.036980 0.653313
vt 0.036980 0.616333
vt 0.073960 0.616333
vt 0.073960 0.653313
vt 0.110940 0.616333
vt 0.110940 0.653313
vt 0.147920 0.616333
vt 0.147920 0.653313
vt 0.184900 0.653313
vt 0.147920 0.653313
vt 0.147920 0.616333
vt 0.184900 0.616333
vt 0.221880 0.653313
vt 0.184900 0.653313
vt 0.184900 0.616333
vt 0.221880 0.616333
vt 0.073960 0.616333
vt 0.073960 0.616333
vt 0.073960 0.616333
vt 0.073960 0.616333
vt 0.995377 0.000000
vt 1.000000 0.000000
vt 0.995377 0.493066
vt 0.995378 0.492238
vt 0.990755 0.001036
vt 0.990755 -0.000000
vt 0.995377 0.616333
vt 0.990755 0.616333
vt 0.493066 0.616333
vt 0.000000 0.616333
vt 0.000000 0.000000
vt 0.492237 0.001036
vt 0.990755 0.616333
vt 0.986133 0.616333
vt 0.986133 0.000000
vt 0.990755 0.000000
vt 1.000000 0.986132
vt 0.995378 0.986132
vt 0.995377 0.493066
vt 1.000000 0.493066
vt 0.986132 0.616333
vt 0.493066 0.616333
vt 0.493895 0.001036
vt 0.986132 0.000000
vt 1.000000 0.000000
vt 0.999992 0.492238
vt 0.995370 0.001036
vt 0.995377 0.616333
vt 0.073960 0.616333
vt 0.073960 0.616333
vt 0.184900 0.690293
vt 0.184900 0.653313
vt 0.221880 0.653313
vt 0.221880 0.690293
vt 0.221880 0.653313
vt 0.221880 0.616333
vt 0.258860 0.616333
vt 0.258860 0.653313
vt 0.295840 0.616333
vt 0.295840 0.653313
vt 0.332820 0.616333
vt 0.332820 0.653313
vt 0.369800 0.653313
vt 0.332820 0.653313
vt 0.332820 0.616333
vt 0.369800 0.616333
vt 0.406780 0.653313
vt 0.369800 0.653313
vt 0.369800 0.616333
vt 0.406780 0.616333
vt 0.406780 0.653313
vt 0.406780 0.616333
vt 0.443760 0.616333
vt 0.443760 0.653313
vt 0.480740 0.616333
vt 0.480740 0.653313
vt 0.517720 0.616333
vt 0.517720 0.653313
vt 0.554699 0.616333
vt 0.554699 0.653313
vt 0.591679 0.616333
vt 0.591679 0.653313
vt 0.554699 0.653313
vt 0.554699 0.616333
vt 0.628659 0.616333
vt 0.628659 0.653313
vt 0.591679 0.653313
vt 0.591679 0.616333
vt 0.628659 0.653313
vt 0.628659 0.616333
vt 0.665639 0.616333
vt 0.665639 0.653313
vt 0.000000 0.690293
vt 0.000000 0.653313
vt 0.036980 0.653313
vt 0.036980 0.690293
vt 0.073960 0.653313
vt 0.073960 0.690293
vt 0.110940 0.653313
vt 0.110940 0.690293
vt 0.147920 0.690293
vt 0.110940 0.690293
vt 0.110940 0.653313
vt 0.147920 0.653313
vt 0.184900 0.690293
vt 0.147920 0.690293
vt 0.147920 0.653313
vt 0.184900 0.653313
vn -1.0000 0.0000 0.0000
vn 0.0000 0.0000 -1.0000
vn 1.0000 0.0000 0.0000
vn 0.0000 0.0000 1.0000
vn 0.0000 -1.0000 0.0000
vn 0.0000 1.0000 0.0000
vn 0.0000 -0.0504 0.9987
vn -0.9996 -0.0269 0.0000
vn -0.0001 1.0000 0.0000
vn -0.0032 0.0505 0.9987
vn -0.9996 0.0270 0.0009
usemtl Table
s off
f 1/1/1 2/2/1 4/3/1 3/4/1
f 3/5/2 4/6/2 8/7/2 7/8/2
f 7/8/3 8/7/3 6/9/3 5/10/3
f 5/10/4 6/9/4 2/11/4 1/12/4
f 3/13/5 7/14/5 5/15/5 1/16/5
f 8/17/6 4/18/6 2/19/6 6/20/6
f 9/21/4 13/22/4 19/23/4 17/24/4
f 12/25/7 11/26/7 15/27/7 16/28/7
f 16/29/8 15/30/8 13/31/8 14/32/8
f 14/33/5 10/34/5 12/35/5 16/36/5
f 10/37/3 9/38/3 11/39/3 12/40/3
f 14/41/2 13/42/2 9/43/2 10/44/2
f 17/45/9 19/46/9 20/47/9 18/48/9
f 15/27/10 11/26/10 18/49/10 20/50/10
f 13/31/11 15/30/11 20/51/11 19/52/11
f 11/53/4 9/21/4 17/24/4 18/54/4
f 21/55/1 22/56/1 24/57/1 23/58/1
f 23/59/2 24/60/2 28/61/2 27/62/2
f 27/62/3 28/61/3 26/63/3 25/64/3
f 25/64/4 26/63/4 22/65/4 21/66/4
f 23/67/5 27/68/5 25/69/5 21/70/5
f 28/71/6 24/72/6 22/73/6 26/74/6
f 29/75/1 30/76/1 32/77/1 31/78/1
f 31/78/2 32/77/2 36/79/2 35/80/2
f 35/80/3 36/79/3 34/81/3 33/82/3
f 33/82/4 34/81/4 30/83/4 29/84/4
f 31/85/5 35/86/5 33/87/5 29/88/5
f 36/89/6 32/90/6 30/91/6 34/92/6
f 37/93/1 38/94/1 40/95/1 39/96/1
f 39/97/2 40/98/2 44/99/2 43/100/2
f 43/100/3 44/99/3 42/101/3 41/102/3
f 41/102/4 42/101/4 38/103/4 37/104/4
f 39/105/5 43/106/5 41/107/5 37/108/5
f 44/109/6 40/110/6 38/111/6 42/112/6
