# Blender 3.6.2
# www.blender.org
mtllib Table.mtl
o Cube.001
v 5.400000 -0.845227 13.900000
v 5.400000 7.154773 13.900000
v 5.400000 -0.845227 12.100000
v 5.400000 7.154773 12.100000
v 6.600000 -0.845227 13.900000
v 6.600000 7.154773 13.900000
v 6.600000 -0.845227 12.100000
v 6.600000 7.154773 12.100000
v 8.000000 8.182449 -14.999998
v 8.000000 7.182449 -14.999998
v 8.000000 8.182449 14.999999
v 8.000000 7.182449 14.999999
v -8.000000 8.182449 -14.999998
v -8.000000 7.182449 -14.999998
v -8.000000 7.182449 14.999999
v -7.973098 7.182449 14.949558
v 8.000000 8.182449 -14.999998
v 8.000000 8.182449 14.999999
v -8.000000 8.182449 -14.999998
v -7.973098 8.180768 14.949558
v -6.599999 -0.845227 13.899999
v -6.599999 7.154773 13.899999
v -6.599999 -0.845227 12.099999
v -6.599999 7.154773 12.099999
v -5.400000 -0.845227 13.899999
v -5.400000 7.154773 13.899999
v -5.400000 -0.845227 12.099999
v -5.400000 7.154773 12.099999
v 5.400000 -0.845227 -12.100000
v 5.400000 7.154773 -12.100000
v 5.400000 -0.845227 -13.900000
v 5.400000 7.154773 -13.900000
v 6.600000 -0.845227 -12.100000
v 6.600000 7.154773 -12.100000
v 6.600000 -0.845227 -13.900000
v 6.600000 7.154773 -13.900000
v -6.599999 -0.845227 -12.100000
v -6.599999 7.154773 -12.100000
v -6.599999 -0.845227 -13.900000
v -6.599999 7.154773 -13.900000
v -5.400000 -0.845227 -12.100000
v -5.400000 7.154773 -12.100000
v -5.400000 -0.845227 -13.900000
v -5.400000 7.154773 -13.900000
vn -1.0000 -0.0000 -0.0000
vn -0.0000 -0.0000 -1.0000
vn 1.0000 -0.0000 -0.0000
vn -0.0000 -0.0000 1.0000
vn -0.0000 -1.0000 -0.0000
vn -0.0000 1.0000 -0.0000
vn -0.0000 -0.0504 0.9987
vn -0.9996 -0.0269 -0.0000
vn -0.0001 1.0000 -0.0000
vn -0.0032 0.0505 0.9987
vn -0.9996 0.0270 0.0009
vt 0.375000 0.000000
vt 0.625000 0.000000
vt 0.625000 0.250000
vt 0.375000 0.250000
vt 0.625000 0.500000
vt 0.375000 0.500000
vt 0.625000 0.750000
vt 0.375000 0.750000
vt 0.625000 1.000000
vt 0.375000 1.000000
vt 0.125000 0.500000
vt 0.125000 0.750000
vt 0.875000 0.500000
vt 0.875000 0.750000
s 0
usemtl Material
f 1/1/1 2/2/1 4/3/1 3/4/1
f 3/4/2 4/3/2 8/5/2 7/6/2
f 7/6/3 8/5/3 6/7/3 5/8/3
f 5/8/4 6/7/4 2/9/4 1/10/4
f 3/11/5 7/6/5 5/8/5 1/12/5
f 8/5/6 4/13/6 2/14/6 6/7/6
f 9/5/6 13/3/6 19/3/6 17/5/6
f 12/8/7 11/7/7 15/9/7 16/10/7
f 16/1/8 15/2/8 13/3/8 14/4/8
f 14/11/5 10/6/5 12/8/5 16/12/5
f 10/6/3 9/5/3 11/7/3 12/8/3
f 14/4/2 13/3/2 9/5/2 10/6/2
f 17/5/9 19/13/9 20/14/9 18/7/9
f 15/9/10 11/7/10 18/7/10 20/9/10
f 13/3/11 15/2/11 20/2/11 19/3/11
f 11/7/6 9/5/6 17/5/6 18/7/6
f 21/1/1 22/2/1 24/3/1 23/4/1
f 23/4/2 24/3/2 28/5/2 27/6/2
f 27/6/3 28/5/3 26/7/3 25/8/3
f 25/8/4 26/7/4 22/9/4 21/10/4
f 23/11/5 27/6/5 25/8/5 21/12/5
f 28/5/6 24/13/6 22/14/6 26/7/6
f 29/1/1 30/2/1 32/3/1 31/4/1
f 31/4/2 32/3/2 36/5/2 35/6/2
f 35/6/3 36/5/3 34/7/3 33/8/3
f 33/8/4 34/7/4 30/9/4 29/10/4
f 31/11/5 35/6/5 33/8/5 29/12/5
f 36/5/6 32/13/6 30/14/6 34/7/6
f 37/1/1 38/2/1 40/3/1 39/4/1
f 39/4/2 40/3/2 44/5/2 43/6/2
f 43/6/3 44/5/3 42/7/3 41/8/3
f 41/8/4 42/7/4 38/9/4 37/10/4
f 39/11/5 43/6/5 41/8/5 37/12/5
f 44/5/6 40/13/6 38/14/6 42/7/6
